<svg width="80" height="48" viewBox="0 0 80 48" fill="none" xmlns="http://www.w3.org/2000/svg">
<path d="M79.5596 28.9629C79.8199 29.7807 79.6711 30.6706 80 31.4767V32.878C79.3912 33.807 78.3753 33.6586 77.4867 33.7855C75.0712 34.1173 72.6421 34.3534 70.2286 34.6989C67.7603 35.0521 65.5054 33.4381 65.1589 30.9907C65.1139 30.6843 65.0434 30.3798 64.9867 30.0754C64.7166 29.5836 64.5267 29.0839 64.8007 28.5277C65.1589 28.3989 65.3214 28.68 65.5073 28.879C66.627 30.0754 68.0109 30.4852 69.6179 30.2784C72.4796 29.9075 75.3394 29.5289 78.2109 29.2381C78.6729 29.1893 79.0722 28.8654 79.5596 28.9629Z" fill="#3580D2"/>
<path d="M59.7034 30.8738C59.7034 31.0397 59.7034 31.2134 59.8521 31.3324C60.545 32.1794 60.4119 33.0889 59.9559 33.9515C59.4934 34.769 58.8358 35.4601 58.0415 35.9637C57.4974 36.3345 56.9924 36.3091 56.4756 35.8681C55.5909 35.105 54.7335 34.3067 53.8135 33.5905C53.6783 33.4691 53.5329 33.3594 53.379 33.2626C52.9386 33.0167 52.5256 33.0382 52.181 33.4265C52.0206 33.584 51.9273 33.7972 51.9208 34.0216C51.9142 34.246 51.9948 34.4642 52.1458 34.6307C52.4433 34.9954 52.7837 35.323 53.1598 35.6065C53.4651 35.8524 53.5747 36.1393 53.3066 36.477C52.6606 37.2889 52.046 38.1339 51.2435 38.8014C50.5466 39.3869 50.2295 39.3362 49.5601 38.7272C48.7928 38.0285 47.9942 37.3611 47.1916 36.7053C46.6612 36.2682 46.1796 36.274 45.8019 36.6721C45.4241 37.0703 45.4456 37.5602 45.8645 38.0637C46.6357 38.9907 46.6181 38.9751 45.8175 39.9197C45.2395 40.6215 44.615 41.2839 43.9482 41.9026C42.8814 42.8589 41.3703 42.9916 40.3818 42.2402C40.2428 41.9572 40.2644 41.6391 40.1861 41.3425C40.0961 40.9669 39.9269 40.6147 39.6897 40.3095C39.4524 40.0043 39.1527 39.753 38.8104 39.5724C38.4681 39.3918 38.0911 39.286 37.7046 39.2621C37.3181 39.2382 36.9309 39.2967 36.5688 39.4338C36.3045 39.5255 36.0638 39.6972 35.7623 39.6699C35.7043 39.6543 35.6506 39.6256 35.6054 39.586C35.5603 39.5464 35.5249 39.497 35.502 39.4416C35.4266 39.1686 35.3994 38.8846 35.4217 38.6023C35.4217 37.5621 34.9872 36.7561 34.075 36.2467C33.1277 35.7139 32.1901 35.829 31.2838 36.3774C31.0665 36.5082 30.8923 36.717 30.5987 36.6995C30.3599 36.6292 30.3149 36.4301 30.2777 36.2233C30.2506 35.6036 30.0704 35.0002 29.7531 34.4668C29.5519 34.1414 29.2814 33.8641 28.9608 33.6545C28.6402 33.445 28.2773 33.3082 27.8978 33.254C27.5183 33.1999 27.1315 33.2295 26.7647 33.341C26.398 33.4524 26.0603 33.6428 25.7757 33.8988C25.6974 33.9671 25.6269 34.0433 25.5486 34.1116C25.3528 34.2775 25.1571 34.5585 24.8948 34.4453C24.6325 34.3321 24.7461 33.9925 24.7637 33.7447C24.8439 32.5034 24.2939 31.5178 23.2388 31.0123C22.1838 30.5069 21.0661 30.7215 20.1481 31.5608C19.968 31.7266 19.8584 32.0135 19.5335 31.9511C19.3769 31.5705 19.0343 31.6681 18.7388 31.6369C17.4371 31.4964 16.1217 31.5549 14.824 31.3168C14.4325 30.5361 14.8768 29.7652 14.824 28.9904C14.8122 28.8167 14.914 28.643 14.9023 28.4615C15.5221 23.555 16.1302 18.6479 16.7266 13.7402C16.9673 11.7885 17.2335 9.83683 17.4312 7.88517C17.4586 7.62365 17.3921 7.28796 17.7816 7.20014C17.7816 7.57095 17.8482 7.80906 18.3355 7.82662C19.5531 7.87151 20.7666 7.97495 21.9783 8.08424C22.3698 8.11937 22.4657 7.86371 22.5929 7.61194C23.0294 6.75907 23.46 5.90033 23.8965 5.04746C24.8752 3.14459 26.2807 2.55324 28.3261 3.12703C30.4969 3.73594 32.6794 4.29802 34.8561 4.88352C34.997 5.10796 34.8463 5.27385 34.7406 5.4495C32.0335 9.96954 29.4086 14.5345 26.7641 19.0896C25.713 20.8988 26.1299 21.9137 28.1539 22.4972C31.0763 23.3384 34.0261 22.3021 35.9718 19.7942C36.8272 18.6837 37.661 17.5576 38.5497 16.4764C39.0234 15.8909 39.2054 15.8909 39.7457 16.4081C41.4662 18.065 43.4745 19.1092 45.8841 19.3199C46.2531 19.3658 46.5969 19.5311 46.8628 19.7903C50.0494 22.5714 53.3007 25.2803 56.4776 28.0731C57.5404 29.0119 58.6875 29.8687 59.7034 30.8738Z" fill="#F8C194"/>
<path d="M56.4076 28.2059L49.1652 21.9899C48.3588 21.297 47.5308 20.6237 46.7596 19.9016C46.2213 19.3922 45.546 19.5113 44.9314 19.3864C42.9311 18.9927 41.0962 18.0072 39.6659 16.5584C39.2842 16.1681 39.11 16.0568 38.6872 16.5935C37.6224 17.9597 36.6672 19.4156 35.4614 20.6686C33.2535 22.9637 30.5816 23.4302 27.6103 22.5441C26.1677 22.1148 25.6059 20.8091 26.3438 19.4956C27.943 16.6521 29.6029 13.8358 31.2373 11.0196C32.2539 9.27481 33.2737 7.53133 34.2968 5.78915C34.4769 5.48079 34.6765 5.18023 34.8664 4.87577C36.0056 3.52132 37.593 3.28907 39.2177 3.14074C42.5531 2.83629 45.8872 2.52727 49.22 2.21371C50.3138 2.10161 51.415 2.33802 52.3656 2.88898C54.1723 3.91555 56.0612 4.81722 57.7798 5.9726C59.1989 6.92696 60.6082 6.94843 62.1409 6.58932C62.505 6.8567 62.4795 7.27826 62.5324 7.64908C63.2109 13.1762 63.8934 18.7059 64.5798 24.2382C64.6353 24.5457 64.6104 24.8623 64.5074 25.1574C64.2333 25.5477 63.7949 25.538 63.3936 25.5946C62.548 25.7156 61.6985 25.8444 60.849 25.8815C59.7724 25.9283 58.9249 26.3772 58.1262 27.0408C57.5821 27.474 57.0888 27.9795 56.4076 28.2059Z" fill="#F19E5C"/>
<path d="M64.4074 25.2393C64.0786 22.3859 63.7615 19.5307 63.4131 16.6793C63.004 13.3146 62.5655 9.95192 62.1388 6.58921C61.8198 4.61413 62.2876 2.93961 64.016 1.75495C64.8165 1.20654 65.7561 1.09529 66.6819 0.974291C69.2266 0.648363 71.7849 0.345855 74.3354 0.0335894C75.5646 -0.116688 76.0246 0.213141 76.193 1.5149C76.6001 4.64731 76.9622 7.78558 77.3498 10.9219C77.8431 14.9306 78.3481 18.9374 78.8414 22.9461C79.088 24.9504 79.3209 26.9567 79.5597 28.9611C78.9725 29.4919 78.215 29.4295 77.5084 29.5193C74.7249 29.8666 71.9435 30.2355 69.1542 30.5263C67.4943 30.6981 66.1241 30.0677 65.1141 28.7152C65.0426 28.6416 64.9632 28.5761 64.8772 28.52C64.335 27.4739 64.2822 26.3732 64.4074 25.2393Z" fill="#5C9BED"/>
<path d="M17.7896 7.18631C17.6448 8.27924 17.4941 9.37412 17.357 10.469C17.0008 13.3132 16.6472 16.1561 16.2961 18.9978C15.9614 21.7301 15.6424 24.4839 15.3174 27.2279C15.2646 27.6631 15.2 28.0983 15.1393 28.5336C14.1312 30.4208 12.4381 30.94 10.4728 30.7214C7.53673 30.3954 4.60063 29.9895 1.66452 29.6499C1.17712 29.5933 0.664281 29.5309 0.452881 28.9649C0.901127 25.2665 1.34154 21.5642 1.79566 17.8658C2.29023 13.8324 2.79067 9.79893 3.29699 5.7655C3.49273 4.25102 3.66106 2.73263 3.88421 1.22204C4.02514 0.246212 4.45186 -0.0894704 5.43056 0.0237258C8.39603 0.367218 11.3654 0.698997 14.3172 1.13031C16.7502 1.48552 18.2829 3.67723 17.9325 6.1051C17.8718 6.46615 17.8346 6.82525 17.7896 7.18631Z" fill="#EC5575"/>
<path d="M30.6287 36.6155C31.5311 35.8056 32.5431 35.4308 33.743 35.8543C34.9429 36.2779 35.6319 37.2752 35.6338 38.5652C35.6338 38.8482 35.6338 39.1292 35.6182 39.4122C35.5438 39.6074 35.5829 39.6776 35.7904 39.582C38.1784 38.0324 40.6976 39.9938 40.4725 42.2265C40.6683 42.5115 40.5371 42.7944 40.4099 43.0306C39.6147 44.4508 38.6347 45.76 37.4953 46.9241C36.8846 47.4043 36.2954 47.9175 35.4655 47.9878C33.3319 48.1674 31.7953 46.3309 32.3552 44.2621C32.3884 44.1411 32.4276 44.024 32.5059 43.7722C31.122 44.6895 29.7968 44.8144 28.5774 43.7722C27.5439 42.8901 27.3697 41.721 27.8336 40.2963C26.5397 41.1121 25.3046 41.2721 24.1301 40.4251C22.9557 39.5781 22.7404 38.329 23.1319 36.8653C22.3665 37.2556 21.699 37.5367 20.9533 37.4664C20.4588 37.4295 19.9822 37.266 19.5697 36.9916C19.1572 36.7173 18.8226 36.3415 18.5984 35.9005C18.3742 35.4595 18.268 34.9683 18.2899 34.4743C18.3119 33.9804 18.4613 33.5005 18.7238 33.081C18.9606 32.6907 19.2621 32.3218 19.5361 31.9432C20.826 30.3351 22.4409 30.0286 23.9344 31.1938C24.9444 31.9744 25.1813 33.0888 24.9131 34.3828C25.9525 33.1396 27.1974 32.5873 28.7124 33.2606C29.9202 33.7992 30.4134 34.8609 30.4741 36.1432C30.3429 36.5804 30.3449 36.5882 30.6287 36.6155Z" fill="#F19E5C"/>
<path d="M37.4949 46.9241C37.9979 45.9951 38.6908 45.2027 39.3427 44.3869C39.8614 43.7331 40.2979 43.0559 40.4721 42.2401C41.9075 42.8191 43.1537 42.5387 44.2107 41.3989C44.7725 40.7881 45.301 40.144 45.898 39.5702C46.3874 39.1018 46.3952 38.7896 45.8647 38.327C45.1953 37.7513 45.1209 37.156 45.53 36.6466C46.0213 36.0358 46.6692 35.9772 47.2917 36.512C48.1588 37.2517 49.026 37.9933 49.8637 38.7661C50.1515 39.0296 50.3766 39.1409 50.7387 38.9164C51.827 38.2392 52.4632 37.1443 53.2833 36.2173C53.4967 35.9733 53.1991 35.8406 53.0465 35.7469C52.6868 35.492 52.3583 35.1959 52.0678 34.8648C51.5862 34.3905 51.5588 33.8636 51.9797 33.3425C52.4299 32.7843 53.0543 32.7102 53.6239 33.1727C54.4264 33.8265 55.2094 34.5076 55.9845 35.1946C57.2333 36.2993 57.2608 36.51 58.766 35.138C59.3806 34.5759 59.8896 33.9514 60.0892 33.0868C60.2399 32.4428 59.9248 31.9158 59.8563 31.3459C61.0151 32.191 62.3226 32.9073 62.7415 34.4296C62.8267 34.7567 62.8206 35.1009 62.7239 35.4249C62.0779 37.8176 59.592 38.9691 57.3841 37.8703C57.065 37.7123 56.8869 37.724 56.6598 37.9894C56.0883 38.6627 55.4854 39.3087 54.8982 39.9762C53.7022 41.3619 52.1911 41.678 50.5801 40.8173C50.2258 40.6222 50.0262 40.671 49.7972 40.954C49.2276 41.6273 48.6345 42.2811 48.0609 42.9525C46.9002 44.3069 45.2893 44.6114 43.739 43.7117C43.3828 43.5165 43.2007 43.5789 42.9678 43.86C42.4236 44.5196 41.8521 45.1578 41.2981 45.8116C40.2392 47.0431 38.9531 47.4257 37.4949 46.9241Z" fill="#E49E6A"/>
<path d="M0.447264 28.965C1.03449 29.4939 1.79201 29.4314 2.49863 29.5212C5.25466 29.8686 8.01068 30.2375 10.7726 30.5283C12.4559 30.7059 13.8614 30.1028 14.8831 28.7191C14.9544 28.643 15.0361 28.5772 15.1258 28.5239C15.0267 29.449 14.9262 30.3741 14.8244 31.2992C13.8927 33.9944 12.2915 34.9546 9.34368 34.5955C6.67116 34.2716 3.99604 33.9521 1.31831 33.6373C0.374843 33.526 -0.069489 33.085 0.00880722 32.1696C0.116465 31.104 0.302416 30.0365 0.447264 28.965Z" fill="#CB3A60"/>
<path d="M64.4072 25.2393L64.877 28.518C64.9122 29.0372 64.9494 29.5544 64.9866 30.0794C64.0079 30.0794 63.0037 30.1438 62.0211 30.0696C61.1011 30.0013 60.3436 30.2277 59.7035 30.8796C58.8149 30.5653 58.2961 29.7632 57.5504 29.246C57.1445 28.9259 56.7594 28.5804 56.3975 28.2116C57.9438 26.7518 59.5469 25.452 61.8782 25.5398C62.7238 25.5652 63.5674 25.3446 64.4072 25.2393Z" fill="#D27D42"/>
<path d="M30.6282 36.6156C30.5919 36.7112 30.5319 36.796 30.4539 36.8622C30.3759 36.9284 30.2823 36.9738 30.1819 36.9942C30.3189 36.6937 30.2386 36.3795 30.4677 36.1433C30.4833 36.3131 30.4422 36.5024 30.6282 36.6156Z" fill="#F6B784"/>
<path d="M35.7899 39.5741L35.4102 40.021C35.3797 39.9093 35.3832 39.7911 35.4201 39.6813C35.4571 39.5715 35.5258 39.4751 35.6177 39.4043L35.7899 39.5741Z" fill="#F6B47F"/>
<path d="M72.4992 29.4841C72.2059 29.497 71.913 29.4491 71.6392 29.3436C71.3653 29.238 71.1163 29.077 70.908 28.8707C70.6996 28.6644 70.5364 28.4173 70.4285 28.145C70.3207 27.8727 70.2706 27.5811 70.2815 27.2885C70.2815 25.9614 71.2054 25.0441 72.5403 25.0578C73.8283 25.0714 74.7268 25.9946 74.7209 27.2924C74.715 28.5903 73.795 29.4841 72.4992 29.4841Z" fill="#EAEDF1"/>
<path d="M7.34491 25.0501C7.63743 25.0455 7.928 25.0983 8.20003 25.2057C8.47206 25.3131 8.72021 25.4728 8.93033 25.6757C9.14045 25.8787 9.30841 26.121 9.42463 26.3887C9.54085 26.6564 9.60304 26.9443 9.60767 27.2359C9.6123 27.5276 9.55926 27.8173 9.45159 28.0885C9.34392 28.3598 9.18373 28.6072 8.98016 28.8167C8.77659 29.0262 8.53362 29.1937 8.26513 29.3095C7.99664 29.4254 7.70791 29.4874 7.41538 29.4921C7.12286 29.4967 6.83229 29.4438 6.56026 29.3364C6.28823 29.2291 6.04008 29.0694 5.82996 28.8664C5.61984 28.6634 5.45188 28.4212 5.33566 28.1535C5.21944 27.8858 5.15725 27.5979 5.15262 27.3062C5.148 27.0145 5.20103 26.7248 5.3087 26.4536C5.41637 26.1824 5.57656 25.9349 5.78013 25.7254C5.9837 25.5159 6.22668 25.3485 6.49516 25.2326C6.76365 25.1167 7.05238 25.0547 7.34491 25.0501Z" fill="#EAEDF1"/>
</svg>
