<svg width="34" height="34" viewBox="0 0 34 34" fill="none" xmlns="http://www.w3.org/2000/svg">
<path d="M24.7083 21.8333H23.1941L22.6575 21.3158C24.9575 18.6325 26.1458 14.9716 25.4941 11.0808C24.5933 5.75248 20.1466 1.49748 14.78 0.845812C6.67248 -0.150855 -0.150855 6.67248 0.845812 14.78C1.49748 20.1466 5.75248 24.5933 11.0808 25.4941C14.9716 26.1458 18.6325 24.9575 21.3158 22.6575L21.8333 23.1941V24.7083L29.9791 32.8541C30.765 33.64 32.0491 33.64 32.835 32.8541C33.6208 32.0683 33.6208 30.7841 32.835 29.9983L24.7083 21.8333ZM13.2083 21.8333C8.43581 21.8333 4.58331 17.9808 4.58331 13.2083C4.58331 8.43581 8.43581 4.58331 13.2083 4.58331C17.9808 4.58331 21.8333 8.43581 21.8333 13.2083C21.8333 17.9808 17.9808 21.8333 13.2083 21.8333Z" fill="white"/>
</svg>
