<svg width="60" height="58" viewBox="0 0 60 58" fill="none" xmlns="http://www.w3.org/2000/svg">
<path d="M0 51.7657C0.561142 50.902 1.38488 50.7293 2.33679 50.8054C2.91825 50.8529 3.50596 50.8054 4.09211 50.8054C4.28451 50.6667 4.52003 50.6037 4.75486 50.6279C6.13974 50.6279 7.52305 50.6057 8.90637 50.639C12.6921 50.6057 16.4779 50.6263 20.2621 50.6279C20.4382 50.6207 20.6139 50.6509 20.7779 50.7166C21.0342 50.8672 21.0311 51.1461 21.0905 51.3869C21.536 53.1855 22.6536 54.0808 24.5011 54.0808C28.19 54.0808 31.8783 54.0808 35.5661 54.0808C37.3089 54.0808 38.4749 53.1411 38.8985 51.4329C38.9579 51.1904 38.9579 50.9163 39.1846 50.7404C39.6144 50.555 40.0662 50.6358 40.5085 50.6327C41.3823 50.6327 42.256 50.6105 43.1298 50.6406C45.7651 50.6184 48.3989 50.612 51.0326 50.6406C51.3968 50.6406 51.7689 50.5772 52.1174 50.7467C52.1719 50.7891 52.216 50.8435 52.2463 50.9059C52.2767 50.9683 52.2925 51.0369 52.2925 51.1065C52.4316 53.4913 51.8705 55.5736 49.7916 56.9966C49.3227 57.3135 48.8365 57.567 48.4083 57.6019C48.5591 57.5498 48.7179 57.5251 48.8772 57.529C50.8081 57.5163 52.7395 57.5163 54.6715 57.529C54.8716 57.529 55.117 57.4941 55.2107 57.7699C55.0701 57.9806 54.845 57.9743 54.634 57.9901C54.423 58.006 54.2041 57.9981 53.99 57.9981C38.0164 57.9981 22.044 57.9981 6.07253 57.9981C5.00651 57.9981 3.95925 57.8871 2.99797 57.388C1.44428 56.583 0.33137 55.4135 0.0672108 53.5848C0.0533468 53.5287 0.0306532 53.4752 0 53.4264V51.7657Z" fill="#9AC3F8"/>
<path d="M60 53.4264C59.8109 53.5437 59.8125 53.7529 59.7593 53.9367C59.17 55.9713 57.2162 57.5893 55.2139 57.7065H48.0785C48.8897 57.3516 49.6806 56.9839 50.3356 56.3834C51.5594 55.2583 52.0721 53.8131 52.144 52.1809C52.1643 51.7277 52.144 51.2729 52.144 50.8197C52.2144 50.7832 52.1128 50.7959 52.1878 50.7817C53.4134 50.518 54.6807 50.5255 55.9032 50.8038C56.6191 50.8038 57.3381 50.8498 58.0493 50.8038C58.9965 50.7436 59.653 51.0922 59.9938 52.0018L60 53.4264Z" fill="#7FB1F8"/>
<path d="M8.94706 50.7991L4.09216 50.807C4.09216 45.6147 4.09581 40.4223 4.10311 35.23C4.10311 30.6303 4.10311 26.0301 4.10311 21.4294C4.10311 19.588 5.10504 18.5659 6.90882 18.5659C9.81613 18.5659 12.724 18.5659 15.6323 18.5659C15.8543 18.5659 16.1012 18.6563 16.2966 18.4487C16.3282 18.4331 16.3643 18.4297 16.3982 18.439C16.4321 18.4483 16.4615 18.4698 16.4811 18.4994C16.6671 18.8163 16.8312 19.1618 17.1157 19.4169C17.2022 19.497 17.2707 19.5951 17.3165 19.7045C17.3624 19.8139 17.3845 19.9319 17.3814 20.0507C17.3923 21.038 17.3939 22.0268 17.3814 23.014C17.3897 23.1021 17.3777 23.1909 17.3462 23.2734C17.3147 23.356 17.2647 23.4299 17.2001 23.4894C16.9297 23.6479 16.6311 23.6083 16.3404 23.6098C14.5835 23.6098 12.825 23.6098 11.0681 23.6098C9.79893 23.6098 9.24873 24.1233 9.11743 25.3926C9.09401 25.6882 9.08618 25.985 9.09399 26.2815C9.07992 32.0908 9.11899 37.9001 9.07366 43.7126C9.04906 44.0285 9.07814 44.3463 9.15964 44.6523C9.22216 45.6712 9.03772 46.6838 9.08617 47.7043C9.12369 48.4871 9.09711 49.2731 9.08617 50.059C9.08773 50.3158 9.11118 50.5772 8.94706 50.7991Z" fill="#C8DFFC"/>
<path d="M55.9096 50.8037L52.1582 50.8196L51.075 50.8053C50.9516 50.6273 50.896 50.41 50.9187 50.1936C50.8937 48.3554 50.9625 46.5157 50.8531 44.6775C50.9266 44.3707 50.9545 44.0545 50.9359 43.7394C50.8906 37.8223 50.9359 31.9053 50.9156 25.9914C50.9297 25.6364 50.9014 25.281 50.8312 24.9329C50.6374 24.1263 50.1262 23.6905 49.3056 23.6256C48.8805 23.5923 48.4459 23.681 48.0302 23.5241C47.7707 23.3657 47.7832 23.0995 47.7769 22.8475C47.7644 22.3182 47.7613 21.7874 47.7769 21.2629C47.8019 20.2138 47.3455 19.4611 46.4483 18.9572C46.292 18.8685 46.0607 18.84 46.0654 18.5769C48.4621 18.5769 50.863 18.5769 53.268 18.5769C54.8639 18.5769 55.9018 19.656 55.9033 21.3167C55.9033 26.7267 55.9033 32.1367 55.9033 37.5466C55.9002 41.9614 55.9023 46.3805 55.9096 50.8037Z" fill="#BBD5F8"/>
<path d="M17.319 12.0515C17.6598 5.58934 22.8773 0.474129 28.9248 0.0541992C31.2975 0.371127 33.0998 1.61982 34.4627 3.55308C35.6538 5.23914 36.1227 7.14546 36.0118 9.20549C36.0207 9.36416 35.9814 9.5218 35.8992 9.65711C35.6194 9.7617 35.5866 9.49865 35.4834 9.3592C35.1948 8.89149 34.9554 8.39436 34.7691 7.87598C34.5222 7.26114 34.2252 7.20409 33.886 7.74762C31.9368 10.8757 28.9686 12.1973 25.497 12.6457C25.1087 12.6788 24.719 12.692 24.3294 12.6854H18.7883C18.5364 12.665 18.2828 12.6837 18.0365 12.7408C17.7989 12.7804 17.5675 12.8771 17.3221 12.7567C17.2682 12.5249 17.2671 12.2837 17.319 12.0515Z" fill="#756E78"/>
<path d="M35.8646 9.66174C35.9052 8.13573 35.813 6.64142 35.1909 5.20732C34.0968 2.69567 32.2586 1.08726 29.6842 0.310786C29.4294 0.233139 29.1434 0.244231 28.9246 0.054074C29.5629 -0.0180247 30.2072 -0.0180247 30.8456 0.054074C35.0549 0.33297 38.2858 2.32962 40.6304 5.80948C41.898 7.68887 42.5483 9.80119 42.6921 12.072C42.7312 12.8532 42.7312 12.8532 42.0215 12.7534C41.0837 12.5949 40.1302 12.7312 39.1877 12.6789C38.0232 12.362 37.2167 11.5269 36.4148 10.6933C36.1655 10.4417 35.9622 10.1471 35.8146 9.82337C35.807 9.7944 35.8076 9.76382 35.8165 9.73521C35.8253 9.7066 35.842 9.68112 35.8646 9.66174Z" fill="#665E66"/>
<path d="M17.3405 12.747L17.911 12.6281C18.8004 12.522 19.6929 12.6107 20.5823 12.5806C21.034 12.5663 21.0075 12.9055 21.0106 13.1923C21.0262 14.5677 21.0106 15.9432 21.0215 17.3123C21.0215 17.7877 20.9653 18.2631 21.0841 18.7211C21.1044 19.1157 21.3217 19.5134 21.0841 19.9096C20.6433 20.1457 20.1665 20.0268 19.707 20.0427C19.1615 20.0601 18.6129 20.0696 18.0705 20.0427C17.6672 20.0173 17.5062 20.1663 17.514 20.5783C17.5281 21.3706 17.5218 22.1629 17.514 22.9426C17.514 23.2167 17.5437 23.4988 17.3812 23.746C17.142 23.7682 17.1248 23.7365 17.203 23.4291C17.203 22.3119 17.203 21.1963 17.2186 20.0791C17.2281 19.9547 17.2041 19.8299 17.149 19.7182C17.0939 19.6066 17.0099 19.5122 16.906 19.4453C16.5934 19.2123 16.3558 18.8922 16.398 18.4517C16.2714 17.4391 16.3792 16.4234 16.3417 15.4108C16.3261 14.9623 16.3855 14.5107 16.3042 14.0654C16.4605 13.5583 16.6465 13.0703 17.2014 12.8658C17.2592 12.8357 17.2811 12.766 17.3405 12.747Z" fill="#9AC3F8"/>
<path d="M42.084 12.6282C42.6405 12.839 42.7311 12.5252 42.6936 12.072C42.7028 12.2994 42.7602 12.5221 42.8619 12.725C42.9636 12.9279 43.1072 13.1062 43.2829 13.2478C43.5046 13.4691 43.647 13.7591 43.6877 14.0718C43.6018 15.498 43.6737 16.9131 43.6502 18.3345C43.6956 19.1173 43.0985 19.8336 42.2575 20.0031C42.0852 20.029 41.9112 20.0422 41.737 20.0428C41.0055 20.0665 40.274 20.0538 39.5487 20.0507C39.3367 20.071 39.1233 20.0286 38.9345 19.9287C38.6594 19.4976 38.9032 19.0587 38.9126 18.6229C39.0298 18.2173 38.9767 17.8021 38.9782 17.3901C38.986 16.0114 38.9782 14.6344 38.986 13.2557C38.986 12.6092 39.0282 12.5728 39.6456 12.5839C40.4553 12.5997 41.2712 12.5221 42.084 12.6282Z" fill="#9AC3F8"/>
<path d="M46.0557 18.5688C47.0967 19.0252 47.8736 19.7003 47.9314 20.9458C47.9564 21.5147 47.9314 22.0867 47.9314 22.6572V23.4242L47.8501 23.5034C47.6548 23.5948 47.4391 23.6325 47.2249 23.6127C46.0786 23.6127 44.9324 23.6127 43.7861 23.6127C43.5705 23.6335 43.3535 23.5911 43.1609 23.4907C43.0046 23.3529 43.089 23.1944 43.1453 23.0581C43.5298 22.1073 43.5454 21.1153 43.5267 20.1139C43.5173 19.5893 43.4829 19.0569 43.7064 18.5593L46.0557 18.5688Z" fill="#C8DFFC"/>
<path d="M43.7175 18.5579C43.6471 19.7654 43.8316 20.9808 43.5971 22.1835C43.5209 22.6263 43.3618 23.0502 43.1282 23.4322C43.1516 23.944 42.7577 24.2008 42.4779 24.5272C41.6071 25.248 40.5134 25.634 39.3893 25.6174C38.4327 25.6174 37.4761 25.6174 36.5195 25.6174C36.2679 25.6174 36.01 25.6428 35.7755 25.5081C35.7425 25.4867 35.7172 25.4551 35.7034 25.418C35.6896 25.3809 35.688 25.3402 35.6989 25.3021C35.8872 24.785 35.9546 24.2306 35.8959 23.6826C35.8962 23.6429 35.9064 23.604 35.9255 23.5693C35.9447 23.5347 35.9721 23.5055 36.0053 23.4845C36.4742 23.288 36.9666 23.3958 37.4496 23.3799C38.2076 23.3799 38.9673 23.3942 39.7269 23.3799C40.8914 23.3451 41.6261 22.5638 41.6651 21.3864C41.6808 20.8857 41.5245 20.3596 41.8215 19.889C42.7702 19.8509 43.4314 19.3153 43.5815 18.4628C43.6112 18.4105 43.644 18.4073 43.6799 18.4628C43.6987 18.4881 43.7112 18.5198 43.7175 18.5579Z" fill="#B8CDD2"/>
<path d="M43.6947 18.444H43.5956C43.5956 17.1763 43.5956 15.8991 43.5956 14.6266C43.5956 14.4381 43.5326 14.2321 43.6884 14.0657C43.6895 15.5278 43.6916 16.9872 43.6947 18.444Z" fill="#94BDEA"/>
<path d="M16.3108 14.0718C16.5043 14.3586 16.3973 14.6819 16.4005 14.9861C16.4146 16.1429 16.4005 17.2997 16.4005 18.4581L16.2919 18.4438L16.3108 14.0718Z" fill="#93BEEB"/>
<path d="M17.3416 12.7469L17.2015 12.8721C17.2771 12.6043 17.1543 12.308 17.3133 12.0513L17.3416 12.7469Z" fill="#8EB3D4"/>
<path d="M8.94688 50.7991C8.91718 48.747 8.89843 46.6933 9.00003 44.6427C8.90312 43.2673 9.28607 41.9821 9.80501 40.7477C11.6666 36.3107 14.9256 33.5011 19.5461 32.3158C20.623 32.0385 21.7 31.7612 22.78 31.5029C23.4147 31.3745 23.9911 31.0409 24.4228 30.5521C24.5416 30.4143 24.6635 30.1496 24.923 30.3937C24.9785 30.584 24.9785 30.7865 24.923 30.9768C24.6104 32.7389 24.3087 34.5026 24.1415 36.2869C23.9195 39.0759 23.7491 41.8617 23.943 44.6649C24.0696 46.5158 24.2384 48.3571 24.476 50.1937C24.5057 50.4267 24.5557 50.6691 24.3822 50.872C24.0852 51.0637 23.757 51.0114 23.4272 51.0146C22.7722 51.0146 22.1189 51.0241 21.4639 51.0146C21.2512 51.0337 21.0389 50.9734 20.8668 50.845L10.6444 50.8244C10.0754 50.8133 9.51115 50.8054 8.94688 50.7991Z" fill="#DF7F83"/>
<path d="M51.0031 44.6428C51.1516 46.7028 51.0656 48.7517 51.0672 50.8054L43.1315 50.7927C42.9017 50.5503 42.9455 50.2413 42.9517 49.9513C42.997 48.0339 42.933 46.1276 42.3406 44.2799C42.3041 44.1877 42.2881 44.0885 42.2938 43.9893C42.2994 43.8902 42.3266 43.7935 42.3734 43.7062C42.6751 43.4495 43.0408 43.5478 43.3831 43.5319C43.8317 43.5145 44.2803 43.5462 44.7289 43.5193C45.3338 43.4812 45.6074 43.2372 45.7152 42.6303C45.7931 42.1422 45.8015 41.6454 45.7402 41.155C45.6699 40.5116 45.3416 40.2042 44.693 40.2042C43.2862 40.2042 41.8794 40.1582 40.4836 40.2375C40.2148 40.2216 40.096 40.0029 39.9537 39.8223C38.8596 38.4452 37.5154 37.3788 36.0195 36.4945C35.93 36.4015 35.8687 36.2843 35.8429 36.157C35.6501 34.4773 35.4 32.8076 35.0926 31.148C35.0457 30.8992 34.9707 30.6488 35.066 30.3953C35.3036 30.1306 35.4521 30.3699 35.574 30.5141C36.0273 31.0497 36.6166 31.3207 37.2747 31.4823C38.6189 31.8135 39.9678 32.1289 41.2917 32.525C43.6447 33.2271 45.7712 34.5511 47.453 36.3611C49.1348 38.1711 50.3115 40.4021 50.8624 42.8252C51.0066 43.4192 51.0541 44.0332 51.0031 44.6428Z" fill="#DA636E"/>
<path d="M36.0977 36.4675C36.8573 36.6656 37.406 37.2155 37.9906 37.6814C38.8831 38.3929 39.7615 39.1345 40.318 40.174C40.0898 40.9362 40.1132 41.7206 40.1335 42.5034C40.1539 43.2038 40.4462 43.4796 41.1402 43.5366C41.5716 43.573 42.0374 43.3908 42.4281 43.722C42.4766 44.4145 42.7595 45.0515 42.897 45.725C43.18 47.1512 43.1284 48.5853 43.1315 50.0225C43.1315 50.2792 43.1315 50.536 43.1315 50.7927L39.1363 50.8339C39.033 50.9269 38.9008 50.9802 38.7627 50.9844C37.8092 51.0145 36.8558 51.0351 35.9023 50.9733C35.8048 50.9624 35.7118 50.9264 35.6319 50.8687C35.3943 50.5851 35.5147 50.265 35.5553 49.9623C35.9859 46.9219 36.1829 43.8522 36.1446 40.7809C36.1258 39.6986 36.0274 38.6211 35.9508 37.5419C35.9242 37.1759 35.8226 36.794 36.0977 36.4675Z" fill="#DF7F83"/>
<path d="M35.6287 50.7956L39.1425 50.8336C39.1097 52.7954 37.6545 54.2564 35.7163 54.258C31.9086 54.258 28.1015 54.258 24.2949 54.258C22.3552 54.258 20.9015 52.797 20.8702 50.8336L24.384 50.7956C24.6154 50.6038 24.8951 50.626 25.1656 50.626C28.3959 50.626 31.6262 50.626 34.8566 50.626C35.1114 50.626 35.3912 50.6038 35.6287 50.7956Z" fill="#609FF6"/>
<path d="M24.8436 30.3096C24.1684 31.2921 23.1383 31.59 22.0598 31.8562C20.4154 32.2618 18.7273 32.5455 17.1783 33.2729C12.7158 35.3646 10.0148 38.8539 9.13633 43.7663C9.08475 44.0563 9.04723 44.3495 9.0019 44.6426C8.84559 44.4731 8.91281 44.2655 8.91125 44.0753C8.91125 37.9333 8.91125 31.7907 8.91125 25.6476C8.91125 24.7839 9.09412 23.9995 9.97882 23.5875C10.208 23.4802 10.4579 23.4261 10.7103 23.4291C12.8767 23.4354 15.0437 23.4381 17.2111 23.437C17.2424 23.5511 17.2752 23.6652 17.3081 23.7793C17.5456 23.9266 17.5097 24.1913 17.5644 24.4131C18.0755 26.4938 19.3416 27.8756 21.3314 28.5855C22.3052 28.9325 23.2915 29.2447 24.27 29.5838C24.506 29.6662 24.767 29.7122 24.9093 29.9625C24.9335 30.0205 24.9403 30.0844 24.9286 30.1462C24.9169 30.208 24.8873 30.2649 24.8436 30.3096Z" fill="#E9F1FE"/>
<path d="M51.0028 44.6429C50.7245 41.743 49.6069 39.2012 47.8047 36.9494C47.7573 36.6977 47.7348 36.4419 47.7375 36.1856C47.7375 32.2769 47.7375 28.3681 47.7375 24.4593C47.7375 24.1107 47.6703 23.7415 47.9251 23.4356C48.3158 23.4356 48.7066 23.4547 49.0943 23.4356C50.3947 23.3802 51.0762 24.2422 51.0794 25.3895C51.0965 31.6805 51.0794 37.9715 51.0794 44.261C51.0924 44.3266 51.0924 44.3942 51.0792 44.4598C51.0661 44.5254 51.0401 44.5876 51.0028 44.6429Z" fill="#DAE7F8"/>
<path d="M24.8437 30.3095V29.9625C24.9531 28.9023 24.8984 27.839 24.9281 26.7789C24.9424 26.5635 24.9013 26.3479 24.8087 26.1535C24.716 25.959 24.5751 25.7923 24.3998 25.6697C22.7961 24.3845 21.6238 22.7666 21.0923 20.7288C21.0188 20.4515 20.8782 20.1646 21.072 19.8762L20.9641 18.7939C20.8672 17.0508 20.9423 15.3204 20.9235 13.5836C20.9126 12.5806 20.9235 12.5869 21.8973 12.579C22.7554 12.579 23.6167 12.6138 24.4717 12.5552C26.9554 12.4348 29.2844 11.8231 31.3351 10.3367C32.3007 9.627 33.1174 8.72957 33.7375 7.6967C33.8939 7.45108 33.9955 7.14366 34.3706 7.1706C34.7864 7.19912 34.8161 7.56042 34.9239 7.84249C35.1724 8.48743 35.4382 9.11971 35.8618 9.66799C35.8618 9.70285 35.8618 9.73771 35.8618 9.77258C35.9849 10.084 36.0424 10.4181 36.0306 10.7535C36.0306 13.3776 36.054 16.0002 36.0196 18.6228C36.0122 20.0513 35.6297 21.4521 34.9114 22.681C34.7176 22.8918 34.4566 22.8775 34.2065 22.8807C33.6234 22.8902 33.0404 22.8728 32.4574 22.8886C31.6274 22.9108 31.1006 23.242 30.8803 23.8664C30.6505 24.5224 30.8318 25.0342 31.5055 25.6095C31.6189 25.686 31.7122 25.7893 31.7775 25.9105C31.7775 25.9708 31.7775 26.0389 31.7368 26.069C30.9386 26.7112 29.9876 27.1288 28.9796 27.2797C30.8308 27.4478 32.6897 27.0569 34.3221 26.1562C34.5253 26.0421 34.7489 25.825 34.9958 26.1023C35.1865 26.8344 35.0599 27.5823 35.0849 28.3208C35.1037 28.85 35.0724 29.3793 35.2412 29.8912C35.2616 29.9617 35.2636 30.0364 35.2472 30.108C35.2307 30.1796 35.1964 30.2458 35.1474 30.3C35.3647 31.6945 35.5976 33.0858 35.793 34.4834C35.8743 35.065 36.0103 35.6434 35.9649 36.2392C35.8352 36.5451 35.546 36.6449 35.2787 36.7542C31.6837 38.2184 28.1011 38.2216 24.5326 36.6639C24.3201 36.572 24.0903 36.488 24.0043 36.2329C24.0825 34.3868 24.4732 32.5882 24.7718 30.7738C24.8077 30.6201 24.8218 30.4648 24.8437 30.3095Z" fill="#FEDCCD"/>
<path d="M24.4699 12.5552C23.5086 12.7232 22.538 12.6233 21.5736 12.617C21.075 12.617 20.9608 12.7755 20.9655 13.2509C20.9874 15.0985 20.9655 16.9446 20.9655 18.7971C20.7905 18.6133 20.8671 18.3851 20.8655 18.1775C20.8655 16.5215 20.8483 14.8656 20.8655 13.2112C20.8655 12.7755 20.7561 12.6202 20.309 12.636C19.5119 12.6661 18.7132 12.636 17.9144 12.636C18.0185 12.5896 18.1285 12.5581 18.2411 12.5425C20.3179 12.5404 22.3942 12.5446 24.4699 12.5552Z" fill="#8CB0D2"/>
<path d="M34.8032 22.7113C35.2424 21.6416 35.6785 20.572 35.7973 19.4025C35.8208 19.1696 35.8552 18.9351 35.8567 18.7006C35.864 15.7235 35.8692 12.7455 35.8724 9.76636C36.6832 10.9432 37.7641 11.9025 39.022 12.5617C39.1501 12.9642 39.0782 13.3793 39.0751 13.7866C39.061 15.4172 39.1345 17.0478 39.0376 18.6768L38.9282 19.8732C38.9818 19.9312 39.0119 20.0076 39.0126 20.0871C38.7922 21.3738 38.3873 22.5813 37.4683 23.548L35.9724 23.5559C35.5445 23.3331 35.1506 23.0486 34.8032 22.7113Z" fill="#FECABD"/>
<path d="M39.0376 18.68C39.0376 16.6411 39.0324 14.6027 39.022 12.5649C40.0427 12.5649 41.0665 12.4413 42.084 12.6314C41.265 12.6314 40.4475 12.66 39.63 12.6394C39.2424 12.6298 39.1298 12.7677 39.1329 13.1512C39.1501 14.7865 39.1439 16.4235 39.1329 18.0636C39.1361 18.2648 39.2127 18.493 39.0376 18.68Z" fill="#8BADCF"/>
<path d="M21.07 19.8764C21.4952 22.2707 22.6988 24.1834 24.6104 25.6349C24.959 25.8996 25.1121 26.1563 25.0918 26.6016C25.0527 27.405 25.0824 28.2131 25.0778 29.0197C25.0778 29.3509 25.0778 29.6869 24.8449 29.9626C23.6694 29.5553 22.4878 29.1703 21.317 28.7408C18.999 27.9041 17.6422 26.2593 17.3077 23.7762C17.3077 22.5972 17.3187 21.4182 17.3077 20.2377C17.3077 19.9207 17.3234 19.8003 17.7438 19.8304C18.852 19.9096 19.9634 19.8684 21.07 19.8764Z" fill="#756E78"/>
<path d="M37.4683 23.5481C38.1404 22.3976 38.7328 21.2171 38.9282 19.8733H41.8355C41.8355 20.4057 41.8652 20.9382 41.8527 21.4706C41.8547 21.7434 41.8033 22.0139 41.7015 22.2664C41.5996 22.5189 41.4493 22.7484 41.2592 22.9415C41.0692 23.1346 40.8432 23.2875 40.5943 23.3914C40.3455 23.4952 40.0788 23.548 39.8097 23.5465C39.0298 23.5671 38.2482 23.5512 37.4683 23.5481Z" fill="#665E66"/>
<path d="M35.1597 30.3001V29.9673C35.2378 29.6868 35.4957 29.6646 35.7083 29.5902C36.6461 29.2637 37.584 28.9468 38.5218 28.6394C40.4142 28.0214 41.6792 26.7616 42.317 24.86C42.353 24.6869 42.4273 24.5244 42.5342 24.3846C42.7343 24.0677 42.9349 23.7508 43.136 23.4338H47.9299C47.9299 27.7166 47.9299 31.9999 47.9299 36.2837C47.9299 36.5087 48.0206 36.7591 47.8096 36.9524C46.2905 35.1908 44.3709 33.8311 42.2169 32.9908C40.8852 32.4805 39.4862 32.2207 38.1154 31.8689C36.9853 31.5836 35.8849 31.319 35.1597 30.3001Z" fill="#E9F1FE"/>
<path d="M42.5343 24.3846C42.3264 25.9613 41.4307 27.0784 40.21 27.9896C39.3269 28.6425 38.2562 28.8628 37.2527 29.232C36.5571 29.4887 35.8553 29.7248 35.1566 29.9688C34.9159 29.6994 34.9237 29.3635 34.9206 29.0339C34.9112 28.0356 34.9081 27.0372 34.9034 26.0405C34.8914 26.0159 34.8851 25.9888 34.8851 25.9613C34.8851 25.9338 34.8914 25.9067 34.9034 25.882C35.1675 25.6776 35.4067 25.4273 35.7724 25.4209C37.0963 25.4209 38.4297 25.4415 39.7458 25.4209C40.6093 25.4095 41.4471 25.1211 42.1388 24.5969C42.256 24.5018 42.3498 24.3592 42.5343 24.3846Z" fill="#665E66"/>
<path d="M35.7678 25.4147C35.5258 25.6375 35.2434 25.8102 34.9362 25.9234C33.8765 26.1864 32.8151 26.2498 31.7554 25.9234C30.3955 25.3212 30.3486 23.8633 31.1614 23.1439C31.4906 22.8582 31.9131 22.7073 32.3462 22.7208L34.8034 22.7129C35.2744 22.8558 35.6855 23.1528 35.9725 23.5575C36.09 23.8606 36.1328 24.1882 36.0971 24.5118C36.0614 24.8355 35.9484 25.1454 35.7678 25.4147Z" fill="#D57A7A"/>
<path d="M24.0134 36.2332C27.9992 38.1569 31.985 38.1712 35.974 36.2332L36.0959 36.4613C36.2053 38.7385 36.421 41.014 36.3163 43.2959C36.2069 45.7061 36.0615 48.1148 35.6395 50.4949C35.6275 50.5927 35.6218 50.6911 35.6223 50.7897H24.3745C24.0231 48.5585 23.7977 46.3089 23.6992 44.0518C23.5845 41.8276 23.6467 39.5977 23.8852 37.3836C23.9321 37.0049 23.8086 36.6008 24.0134 36.2332Z" fill="#FEDF7D"/>
<path d="M42.4262 43.7173C41.9572 43.7173 41.4883 43.7173 41.0319 43.6999C40.3488 43.6825 39.9721 43.2958 39.9581 42.5906C39.9503 42.1406 39.9753 41.689 39.9503 41.2405C39.9351 41.0453 39.9598 40.8491 40.0227 40.664C40.0856 40.4788 40.1855 40.3088 40.316 40.1646C40.5665 40.0556 40.8359 39.9985 41.1085 39.9966C42.3152 40.0061 43.5219 39.9966 44.7301 39.9966C45.4991 39.9966 45.8727 40.3626 45.9024 41.1423C45.9212 41.6177 45.9259 42.0931 45.9024 42.5605C45.8555 43.3529 45.4913 43.6825 44.7067 43.6904C43.9439 43.7173 43.1842 43.7173 42.4262 43.7173Z" fill="#E9F1FE"/>
<path d="M31.7554 25.9216H34.9363L34.9034 26.0373C33.9062 26.5729 32.8996 27.0848 31.7695 27.2733C30.7519 27.4429 29.7375 27.6013 28.6543 27.2939C29.7609 26.92 30.8567 26.6395 31.7554 25.9216Z" fill="#FECABD"/>
</svg>
