<svg width="32" height="32" viewBox="0 0 32 32" fill="none" xmlns="http://www.w3.org/2000/svg">
<path d="M15.9993 0.164062C7.25935 0.164062 0.166016 7.2574 0.166016 15.9974C0.166016 24.7374 7.25935 31.8307 15.9993 31.8307C24.7393 31.8307 31.8327 24.7374 31.8327 15.9974C31.8327 7.2574 24.7393 0.164062 15.9993 0.164062ZM23.346 10.9307C23.1085 13.4324 22.0793 19.5124 21.5568 22.3149C21.3352 23.5024 20.8918 23.8982 20.4802 23.9457C19.5618 24.0249 18.8652 23.3441 17.9785 22.7582C16.5852 21.8399 15.7935 21.2699 14.4477 20.3832C12.8802 19.3541 13.8935 18.7841 14.796 17.8657C15.0335 17.6282 19.0868 13.9391 19.166 13.6066C19.177 13.5562 19.1755 13.5039 19.1618 13.4543C19.148 13.4046 19.1222 13.359 19.0868 13.3216C18.9918 13.2424 18.8652 13.2741 18.7543 13.2899C18.6118 13.3216 16.3952 14.7941 12.0727 17.7074C11.4393 18.1349 10.8693 18.3566 10.3627 18.3407C9.79268 18.3249 8.71601 18.0241 7.90851 17.7549C6.91102 17.4382 6.13518 17.2641 6.19852 16.7099C6.23018 16.4249 6.62602 16.1399 7.37018 15.8391C11.9935 13.8282 15.0652 12.4982 16.601 11.8649C21.0027 10.0282 21.9052 9.71156 22.5068 9.71156C22.6335 9.71156 22.9343 9.74323 23.1243 9.90156C23.2827 10.0282 23.3302 10.2024 23.346 10.3291C23.3302 10.4241 23.3618 10.7091 23.346 10.9307Z" fill="#F06F59"/>
</svg>
