<svg width="70" height="70" viewBox="0 0 70 70" fill="none" xmlns="http://www.w3.org/2000/svg">
<path d="M22.9956 67.8312C20.4603 66.9795 18.1364 65.6928 15.8552 64.3207C15.8062 64.3062 15.7633 64.2761 15.7328 64.2351C15.7024 64.194 15.6861 64.1442 15.6865 64.0931C15.8003 63.0402 15.0461 62.3206 14.6699 61.4506C14.6 61.2713 14.4722 61.1204 14.3069 61.0217C14.1416 60.9231 13.9481 60.8823 13.7571 60.9058C13.5805 60.9151 13.4112 60.9787 13.2722 61.0878C13.1332 61.197 13.0313 61.3464 12.9804 61.5156C12.9113 61.6864 12.9031 61.9384 12.6124 61.91C10.0262 59.7185 7.75239 57.1832 5.85432 54.3748C2.96379 50.0198 1.08262 45.0742 0.348174 39.8994C-0.386274 34.7246 0.0445426 29.4511 1.60917 24.464C1.67423 24.2465 1.76369 24.0371 1.84298 23.8237C2.3533 23.6387 2.71518 23.9781 3.09334 24.2058C4.28475 24.9294 5.33995 25.8523 6.52729 26.584C8.43029 27.7589 10.2682 27.3971 11.5857 25.5901C12.1029 24.8667 12.4789 24.0523 12.6937 23.1895C12.9276 22.3093 13.1553 21.4251 13.3199 20.5287C13.9157 17.2967 15.9955 15.3474 18.8419 14.0383C19.3949 13.7842 19.9642 13.5688 20.5192 13.3208C22.839 12.278 23.4916 11.0076 23.1623 8.48505C22.9102 6.48896 22.9691 4.49287 23.5486 2.5415C23.6258 2.28334 23.634 1.97844 23.9288 1.83209C25.925 1.1026 27.9979 0.603397 30.1074 0.344168C35.7981 -0.46084 41.5995 0.151506 46.9965 2.12683C50.6561 3.4501 53.9498 5.39335 57.0056 7.77362C57.1072 8.03583 56.908 8.15169 56.7433 8.2452C54.879 9.29812 53.0837 10.4689 51.2376 11.5463C51.1064 11.6212 50.9645 11.6753 50.8168 11.7069C50.4887 11.7489 50.1556 11.693 49.8592 11.5463C46.9234 10.4405 43.9855 9.34081 41.0619 8.20048C40.5028 7.98095 40.086 8.01144 39.6244 8.4444C39.0735 8.96273 38.5225 9.49123 37.9227 9.95265C37.4937 10.284 37.5364 10.4994 37.9105 10.8328C39.4028 12.1581 40.9175 13.4611 42.4179 14.7803C42.8246 15.1461 43.3003 15.4632 43.5423 15.9897C43.4772 16.3454 43.1519 16.441 42.9039 16.5995C38.5753 19.1871 34.2712 21.8113 29.9549 24.4172C29.4202 24.7404 28.9546 24.8034 28.4037 24.4843C27.8385 24.1442 27.247 23.8498 26.6348 23.6041C25.3479 23.1143 24.1077 23.1773 22.9752 24.0452C22.6723 24.2749 22.5686 24.4518 22.9142 24.7465C24.6078 26.2304 26.2486 27.7772 27.997 29.2042C29.1336 30.1351 30.4225 30.2083 31.7054 29.568C36.0828 27.389 40.4763 25.2404 44.8211 22.9943C45.3172 22.7382 45.8377 22.539 46.3215 22.2565C46.5249 22.1386 46.7282 22.0532 46.9599 22.2239C47.334 22.7016 47.393 23.2952 47.5475 23.8501C48.1249 25.9207 48.6983 27.992 49.2675 30.064C49.5095 30.936 49.5989 30.9706 50.4183 30.6209C51.0709 30.3445 51.7174 30.0559 52.3721 29.7896C52.8275 29.6066 52.9942 29.2916 53.0369 28.7997C53.2687 26.0332 53.4598 23.2626 53.7587 20.5002C53.8298 19.8274 53.7241 19.1282 54.0332 18.4879C54.1856 18.2318 54.454 18.1362 54.7 18.0122C57.1601 16.7825 59.6141 15.5466 62.0803 14.329C62.4015 14.1705 62.7247 13.8757 63.1273 14.1644C65.2966 17.2276 67.0736 20.4962 68.2264 24.0818C68.9826 26.33 69.4812 28.6567 69.7126 31.0173C69.1169 31.4706 68.3931 31.2816 67.7384 31.3568C64.1806 31.7662 60.7258 32.8142 57.5403 34.4505C56.45 34.9912 55.3188 35.4452 54.1572 35.8083C51.8719 36.5442 49.6599 36.2291 47.4743 35.3876C46.0511 34.8428 44.6686 34.2127 43.156 33.9464C42.2555 33.7941 41.3375 33.7757 40.4316 33.8915C38.6302 34.1131 37.4388 35.2656 36.9916 37.1763C36.815 37.8909 36.7222 38.6235 36.7151 39.3594C36.7151 40.2457 36.6927 41.1319 36.7151 42.0182C36.8106 45.1343 36.5687 48.2443 36.5361 51.3685C36.5157 52.6856 36.2787 53.9904 35.8347 55.2306C35.2248 56.934 34.1472 58.1373 32.3784 58.6862C30.9035 59.1591 29.4745 59.7646 28.1088 60.4952C26.8383 61.1368 25.705 62.0198 24.7725 63.095C23.9265 64.0866 23.4187 65.322 23.3229 66.6217C23.2883 67.0323 23.2843 67.4694 22.9956 67.8312Z" fill="#3EA6FA"/>
<path d="M22.9956 67.8312C22.9468 63.8533 25.3093 61.5909 28.5887 59.9892C29.6053 59.4911 30.6381 58.9627 31.7421 58.6903C34.436 58.0256 35.5908 56.1271 36.0544 53.5923C36.461 51.3076 36.3776 48.9985 36.4406 46.6975C36.5118 44.1912 36.4894 41.6828 36.526 39.1765C36.5254 38.2634 36.6716 37.3561 36.9591 36.4893C37.569 34.7473 38.8417 33.8469 40.6187 33.6192C42.2147 33.4159 43.7436 33.7412 45.2319 34.294C45.9902 34.5746 46.7546 34.8449 47.5008 35.16C50.2455 36.3206 52.9536 36.217 55.678 35.0482C57.6075 34.2209 59.4474 33.1964 61.448 32.5297C64.1095 31.6184 66.891 31.1053 69.7025 31.0072C70.0048 32.9856 70.0771 34.9923 69.918 36.9873C69.5114 43.3334 67.6246 49.2078 64.0219 54.4684C58.3109 62.8024 50.4448 67.8536 40.4621 69.5306C34.6271 70.5103 28.912 69.9371 23.329 67.9938C23.2213 67.9471 23.1115 67.8841 22.9956 67.8312Z" fill="#94D60B"/>
<path d="M63.1232 14.1522C62.7878 14.0506 62.5438 14.2681 62.2795 14.4002C59.5686 15.7459 56.8619 17.0935 54.1592 18.4432C54.0653 18.3562 53.9982 18.2441 53.9658 18.1203C53.9334 17.9964 53.937 17.8659 53.9762 17.744C54.1328 16.9695 54.0596 16.1809 54.1653 15.4064C54.1876 15.2397 54.2974 15.0344 54.1144 14.9145C53.9315 14.7946 53.7831 14.9572 53.6346 15.0426C52.0081 15.964 50.3782 16.8794 48.745 17.7887C48.1493 18.1221 47.5759 18.4981 46.964 18.7929C46.3967 19.0652 46.2605 19.4494 46.4638 20.0226C46.63 20.5008 46.7658 20.9889 46.8704 21.4841C46.9213 21.724 47.0412 21.972 46.8521 22.2078L34.2285 28.5335L31.9921 29.6596C30.4571 30.432 28.9953 30.3324 27.6819 29.1961C25.8642 27.6269 24.0792 26.019 22.2778 24.4274C23.5912 23.0391 25.1852 22.7139 26.8503 23.4782C27.111 23.5766 27.361 23.7013 27.5965 23.8502C28.7005 24.6632 29.6438 24.46 30.7864 23.7363C34.8527 21.1711 39.0043 18.7339 43.1214 16.2459C43.2495 16.1687 43.3653 16.0711 43.4873 15.9837C43.5849 15.689 43.8533 15.5772 44.0871 15.4328C46.0186 14.2742 47.95 13.1075 49.8795 11.9509C50.1607 11.7816 50.4721 11.6684 50.7964 11.6175L56.6925 8.07047C56.8205 7.99323 56.9669 7.93835 57.0137 7.7737C57.9265 7.62735 58.7886 7.2696 59.7503 7.27976C60.8115 7.26323 61.862 7.4943 62.8182 7.95461C63.357 8.22699 63.847 8.21073 64.4142 8.13755C65.2031 8.03388 66.0245 7.88753 66.7849 8.3022C67.5452 8.71686 67.9824 9.29821 67.9925 10.1702C68.0027 11.0422 67.5635 11.6683 66.8255 12.0627C65.809 12.6115 64.7477 13.1054 63.7148 13.636C63.479 13.7559 63.1639 13.7925 63.1232 14.1522Z" fill="#ECECF8"/>
<path d="M23.9349 1.83215C23.2375 4.14534 23.1318 6.49106 23.3778 8.89165C23.634 11.4223 22.9305 12.4814 20.5985 13.5099C19.9053 13.8148 19.2079 14.1197 18.5187 14.4287C15.6438 15.7601 13.9096 17.9554 13.3769 21.106C13.1329 22.5513 12.828 23.9924 12.0452 25.273C11.3458 26.4215 10.4492 27.3057 9.024 27.4439C8.15586 27.5313 7.37513 27.2732 6.62898 26.8707C5.8015 26.4235 5.07567 25.8239 4.31732 25.2751C3.55897 24.7262 2.77215 24.1266 1.84302 23.8176C3.06194 20.0265 4.96442 16.4903 7.45646 13.3839C11.5984 8.0777 17.1965 4.0926 23.5669 1.91549C23.6878 1.88031 23.8107 1.85248 23.9349 1.83215Z" fill="#94D60B"/>
<path d="M12.6145 61.9244C12.6369 61.9143 12.6735 61.9061 12.6796 61.8899C12.8605 61.3165 12.9906 60.7066 13.7775 60.67C14.5643 60.6334 14.794 61.2494 15.0847 61.8167C15.4792 62.6116 16.083 63.3375 15.8553 64.3235C15.6682 64.3906 15.4751 64.4496 15.2921 64.5268C14.7188 64.7708 14.2939 64.6285 13.932 64.1202C13.4379 63.4127 13.2326 62.5466 12.6145 61.9244Z" fill="#ECECF8"/>
<path d="M46.846 22.2075C46.6427 21.3945 46.476 20.5814 46.1995 19.8009C46.0104 19.2663 46.1832 18.9979 46.6061 18.7601C48.2611 17.8332 49.9133 16.9043 51.5629 15.9733C52.2887 15.5668 53.0084 15.144 53.7403 14.7415C53.9294 14.6378 54.147 14.4082 54.3503 14.5626C54.5536 14.7171 54.4357 14.9854 54.4174 15.2111C54.3279 16.2884 54.2391 17.3657 54.151 18.443C53.8935 21.3321 53.6353 24.2213 53.3764 27.1104C53.3154 27.8157 53.2442 28.519 53.2178 29.2244C53.2036 29.6045 52.986 29.7447 52.6892 29.8687C51.7804 30.2488 50.8594 30.6228 49.973 31.0314C49.5236 31.2347 49.3386 31.19 49.1984 30.6594C48.4868 27.9783 47.7284 25.3094 46.9823 22.6385C46.9497 22.4921 46.8989 22.3519 46.846 22.2075Z" fill="#DCDCE2"/>
<path d="M50.7864 11.6174L43.4773 15.9836C41.5072 14.2457 39.5493 12.4935 37.5569 10.784C37.1665 10.4507 37.1909 10.3043 37.5569 10.0075C38.2786 9.41602 38.9943 8.81028 39.6612 8.15983C39.8048 7.98864 40.0026 7.87157 40.2218 7.82796C40.441 7.78435 40.6685 7.81681 40.8668 7.91997C43.9022 9.09689 46.9479 10.2454 49.9935 11.3959C50.2456 11.4853 50.52 11.5442 50.7864 11.6174Z" fill="#DCDCE2"/>
<path d="M15.6377 41.2072C15.4701 41.2008 15.3066 41.1542 15.1608 41.0713C15.0151 40.9884 14.8914 40.8717 14.8003 40.7309C14.7092 40.5902 14.6533 40.4296 14.6373 40.2628C14.6213 40.0959 14.6458 39.9276 14.7085 39.7722C15.3726 38.2991 16.186 36.898 17.1361 35.5909C17.2034 35.4814 17.2928 35.3871 17.3987 35.3142C17.5045 35.2412 17.6245 35.1912 17.7508 35.1672C17.8771 35.1433 18.0071 35.1461 18.1323 35.1753C18.2575 35.2045 18.3752 35.2595 18.4779 35.3368C18.9882 35.6661 19.2038 36.1723 18.8846 36.7069C18.0876 38.024 17.2947 39.3494 16.5587 40.693C16.4669 40.8547 16.3325 40.9882 16.1701 41.0789C16.0077 41.1696 15.8235 41.214 15.6377 41.2072Z" fill="#ECECF8"/>
<path d="M13.8505 43.2052C14.5825 43.2052 15.1253 43.815 14.9301 44.4817C14.5052 45.9351 14.0803 47.3864 13.7102 48.8581C13.5659 49.4496 13.0759 49.7098 12.47 49.5695C12.3429 49.5502 12.221 49.5051 12.112 49.4369C12.0029 49.3687 11.909 49.2788 11.836 49.1729C11.7631 49.067 11.7126 48.9473 11.6877 48.8211C11.6628 48.695 11.6641 48.565 11.6914 48.4394C11.9483 46.8433 12.382 45.2807 12.9844 43.7805C13.0567 43.6104 13.1773 43.4653 13.3313 43.3631C13.4852 43.2608 13.6657 43.206 13.8505 43.2052Z" fill="#ECECF8"/>
<path d="M13.5557 57.1231C13.5862 57.9362 13.2284 58.4768 12.6429 58.5033C11.9943 58.5317 11.5999 58.1719 11.486 57.5357C11.214 56.0682 11.0974 54.5761 11.1383 53.0841C11.1587 52.391 11.6426 51.9215 12.2139 51.9275C12.8238 51.9275 13.2569 52.4174 13.2508 53.1634C13.2561 54.489 13.358 55.8124 13.5557 57.1231Z" fill="#ECECF8"/>
<path d="M66.0103 25.6836C66.0631 26.5556 65.6748 26.9032 65.1584 27.0109C64.9218 27.0714 64.6709 27.0367 64.4596 26.9144C64.2482 26.792 64.0933 26.5917 64.028 26.3564C63.6437 25.2059 63.2432 24.0635 62.7593 22.9496C62.5113 22.3764 62.7593 21.913 63.2859 21.604C63.3932 21.5316 63.5149 21.4832 63.6426 21.4623C63.7704 21.4413 63.9011 21.4483 64.0259 21.4826C64.1507 21.517 64.2666 21.578 64.3655 21.6614C64.4645 21.7448 64.5443 21.8487 64.5993 21.9658C65.2145 23.1452 65.6881 24.3931 66.0103 25.6836Z" fill="#0F89CB"/>
<path d="M23.2681 31.3508C23.2424 31.5037 23.1886 31.6506 23.1095 31.7839C22.5591 32.4783 21.9255 33.1024 21.2228 33.6422C20.7938 33.9593 20.2855 33.8638 19.9094 33.4714C19.5332 33.079 19.4844 32.5626 19.8362 32.156C20.3739 31.5505 20.9497 30.9801 21.5602 30.4481C21.8876 30.1554 22.3125 30.1655 22.7069 30.3587C23.1014 30.5518 23.2437 30.8751 23.2681 31.3508Z" fill="#EBECF8"/>
</svg>
