<svg width="21" height="20" fill="none" xmlns="http://www.w3.org/2000/svg"><path fill-rule="evenodd" clip-rule="evenodd" d="M20.1 10.227c0-.709-.064-1.39-.182-2.045H10.5v3.868h5.382a4.6 4.6 0 01-1.996 3.018v2.51h3.232c1.891-1.742 2.982-4.305 2.982-7.35z" fill="#1877F2"/><path fill-rule="evenodd" clip-rule="evenodd" d="M10.5 20c2.7 0 4.964-.896 6.618-2.423l-3.232-2.509c-.895.6-2.04.955-3.386.955-2.604 0-4.809-1.76-5.595-4.123H1.564v2.59A9.996 9.996 0 0010.5 20z" fill="#1877F2"/><path fill-rule="evenodd" clip-rule="evenodd" d="M4.905 11.9c-.2-.6-.314-1.24-.314-1.9 0-.659.114-1.3.314-1.9V5.51H1.564A9.996 9.996 0 00.5 10c0 1.614.386 3.141 1.064 4.491l3.34-2.59z" fill="#1877F2"/><path fill-rule="evenodd" clip-rule="evenodd" d="M10.5 3.977c1.468 0 2.786.505 3.823 1.496l2.868-2.868C15.459.99 13.196 0 10.501 0a9.994 9.994 0 00-8.938 5.51l3.34 2.59c.787-2.364 2.992-4.123 5.596-4.123z" fill="#1877F2"/></svg>