<svg width="32" height="32" fill="none" xmlns="http://www.w3.org/2000/svg"><path d="M17.628.166c1.155-.004 2.31.007 3.466.035l.307.01c.355.014.705.03 1.127.048 1.685.08 2.835.346 3.843.737a7.704 7.704 0 012.806 1.827 7.77 7.77 0 011.825 2.804c.391 1.009.657 2.16.737 3.844.019.421.034.773.047 1.128l.01.307c.028 1.154.04 2.31.036 3.464l.002 1.181v2.074a124.75 124.75 0 01-.037 3.466l-.01.307c-.012.355-.028.705-.047 1.128-.079 1.684-.348 2.834-.738 3.843a7.733 7.733 0 01-1.825 2.805A7.783 7.783 0 0126.37 31c-1.008.39-2.158.657-3.843.736-.422.02-.772.035-1.127.048l-.307.01c-1.155.027-2.31.04-3.466.035l-1.181.002h-2.073a124.75 124.75 0 01-3.466-.036l-.307-.01c-.376-.013-.752-.03-1.127-.047-1.685-.08-2.834-.349-3.845-.738a7.742 7.742 0 01-2.804-1.826A7.765 7.765 0 01.998 26.37c-.39-1.01-.657-2.16-.736-3.844a106.32 106.32 0 01-.048-1.128l-.007-.307c-.03-1.155-.043-2.31-.04-3.466V14.37c-.004-1.155.007-2.31.035-3.464l.01-.307c.014-.355.03-.707.048-1.128.08-1.686.346-2.834.737-3.844a7.727 7.727 0 011.83-2.803A7.754 7.754 0 015.629.996C6.64.605 7.788.339 9.474.259L10.6.212l.307-.008c1.155-.03 2.31-.042 3.465-.04l3.255.002zM16 8.083a7.917 7.917 0 100 15.831 7.917 7.917 0 100-15.831zm0 3.166a4.75 4.75 0 11.002 9.499 4.75 4.75 0 010-9.5l-.002.001zm8.313-5.541a1.98 1.98 0 000 3.955 1.979 1.979 0 100-3.958v.003z" fill="#F06F59"/></svg>