<svg width="80" height="48" fill="none" xmlns="http://www.w3.org/2000/svg"><path d="M79.56 28.963c.26.818.111 1.708.44 2.514v1.401c-.609.929-1.625.78-2.513.907-2.416.332-4.845.568-7.258.914-2.469.353-4.724-1.26-5.07-3.708-.045-.307-.116-.611-.172-.916-.27-.491-.46-.991-.186-1.547.358-.13.52.152.706.351 1.12 1.196 2.504 1.606 4.11 1.4 2.863-.372 5.722-.75 8.594-1.04.462-.05.861-.374 1.349-.276z" fill="#3580D2"/><path d="M59.703 30.874c0 .166 0 .34.15.458.692.847.559 1.757.103 2.62a5.715 5.715 0 01-1.915 2.012c-.544.37-1.049.345-1.565-.096-.885-.763-1.742-1.561-2.663-2.278a3.202 3.202 0 00-.434-.327c-.44-.246-.853-.225-1.198.163a.87.87 0 00-.035 1.205c.297.364.638.692 1.014.975.305.246.415.533.147.871-.646.812-1.261 1.657-2.064 2.324-.696.586-1.014.535-1.683-.074a58.206 58.206 0 00-2.368-2.022c-.53-.437-1.012-.431-1.39-.033-.378.398-.356.888.063 1.392.77.927.753.911-.047 1.856a20.377 20.377 0 01-1.87 1.983c-1.067.956-2.578 1.089-3.566.337-.14-.283-.118-.6-.196-.898a2.714 2.714 0 00-1.376-1.77 2.731 2.731 0 00-2.241-.138c-.265.092-.505.263-.807.236a.393.393 0 01-.26-.228 2.433 2.433 0 01-.08-.84c0-1.04-.435-1.846-1.347-2.355-.947-.533-1.885-.418-2.791.13-.217.131-.392.34-.685.322-.24-.07-.284-.269-.321-.476a3.757 3.757 0 00-.525-1.756 2.612 2.612 0 00-1.855-1.213 2.623 2.623 0 00-2.122.645c-.079.068-.15.144-.227.213-.196.166-.392.447-.654.333-.262-.113-.149-.453-.131-.7.08-1.242-.47-2.227-1.525-2.733-1.055-.505-2.173-.29-3.09.549-.181.166-.29.453-.616.39-.156-.38-.499-.283-.794-.314-1.302-.14-2.617-.082-3.915-.32-.392-.78.053-1.552 0-2.327-.012-.173.09-.347.078-.528.62-4.907 1.228-9.814 1.825-14.722.24-1.951.506-3.903.704-5.855.028-.261-.039-.597.35-.685 0 .37.067.61.555.627 1.217.045 2.43.148 3.642.257.392.035.488-.22.615-.472.436-.853.867-1.712 1.303-2.565.98-1.902 2.385-2.494 4.43-1.92 2.17.609 4.353 1.171 6.53 1.757.141.224-.01.39-.115.565-2.708 4.52-5.332 9.085-7.977 13.64-1.051 1.81-.634 2.825 1.39 3.408 2.922.841 5.872-.195 7.818-2.703.855-1.11 1.689-2.236 2.578-3.318.473-.585.655-.585 1.196-.068 1.72 1.657 3.728 2.701 6.138 2.912.37.046.713.211.979.47 3.186 2.781 6.438 5.49 9.615 8.283 1.062.939 2.21 1.796 3.225 2.8z" fill="#F8C194"/><path d="M56.408 28.206l-7.243-6.216c-.806-.693-1.634-1.366-2.405-2.088-.539-.51-1.214-.39-1.829-.516-2-.393-3.835-1.379-5.265-2.828-.382-.39-.556-.501-.979.035-1.065 1.367-2.02 2.823-3.226 4.076-2.207 2.295-4.88 2.761-7.85 1.875-1.443-.43-2.005-1.735-1.267-3.048 1.599-2.844 3.259-5.66 4.893-8.476 1.017-1.745 2.037-3.489 3.06-5.23.18-.31.38-.61.57-.914 1.139-1.355 2.726-1.587 4.35-1.735 3.336-.305 6.67-.614 10.003-.927a5.213 5.213 0 013.146.675c1.806 1.027 3.695 1.928 5.414 3.084 1.419.954 2.828.975 4.36.616.365.268.34.69.392 1.06.679 5.527 1.361 11.057 2.048 16.59.055.307.03.623-.073.918-.274.39-.712.381-1.113.438-.846.12-1.695.25-2.545.287-1.077.046-1.924.495-2.723 1.159-.544.433-1.037.939-1.718 1.165z" fill="#F19E5C"/><path d="M64.407 25.24c-.328-2.854-.645-5.71-.994-8.56-.409-3.365-.847-6.728-1.274-10.09-.32-1.976.149-3.65 1.877-4.835.8-.548 1.74-.66 2.666-.78 2.545-.327 5.103-.63 7.653-.941 1.23-.15 1.69.18 1.858 1.48.407 3.133.77 6.272 1.157 9.408.493 4.009.998 8.015 1.491 12.024.247 2.004.48 4.01.719 6.015-.588.53-1.345.469-2.052.558-2.783.348-5.564.716-8.354 1.007-1.66.172-3.03-.458-4.04-1.81a1.386 1.386 0 00-.237-.196c-.542-1.046-.595-2.147-.47-3.28z" fill="#5C9BED"/><path d="M17.79 7.186c-.145 1.093-.296 2.188-.433 3.283-.356 2.844-.71 5.687-1.06 8.529-.336 2.732-.655 5.486-.98 8.23-.052.435-.117.87-.178 1.306-1.008 1.887-2.7 2.406-4.666 2.187-2.936-.326-5.872-.732-8.808-1.071-.488-.057-1-.12-1.212-.685.448-3.698.889-7.4 1.343-11.1.494-4.033.995-8.066 1.501-12.1.196-1.514.364-3.032.587-4.543.141-.976.568-1.311 1.547-1.198 2.965.343 5.934.675 8.886 1.106 2.433.356 3.966 2.547 3.616 4.975-.061.361-.098.72-.143 1.081z" fill="#EC5575"/><path d="M30.629 36.615c.902-.81 1.914-1.184 3.114-.76 1.2.423 1.889 1.42 1.89 2.71 0 .283 0 .564-.015.847-.074.195-.035.266.172.17 2.388-1.55 4.908.412 4.682 2.645.196.285.065.567-.062.804a18.459 18.459 0 01-2.915 3.893c-.61.48-1.2.993-2.03 1.064-2.133.18-3.67-1.657-3.11-3.726.033-.12.073-.238.15-.49-1.383.918-2.708 1.042-3.928 0-1.033-.882-1.207-2.051-.743-3.476-1.294.816-2.53.976-3.704.13-1.174-.848-1.39-2.097-.998-3.56-.766.39-1.433.67-2.179.6a2.886 2.886 0 01-2.355-1.566 2.867 2.867 0 01.126-2.819c.237-.39.538-.76.812-1.138 1.29-1.608 2.905-1.914 4.398-.75 1.01.781 1.247 1.896.98 3.19 1.038-1.243 2.283-1.796 3.798-1.122 1.208.538 1.701 1.6 1.762 2.882-.131.437-.13.445.155.472z" fill="#F19E5C"/><path d="M37.495 46.924c.503-.929 1.196-1.721 1.848-2.537.518-.654.955-1.331 1.13-2.147 1.434.58 2.68.299 3.738-.841.562-.61 1.09-1.255 1.687-1.829.49-.468.497-.78-.033-1.243-.67-.576-.744-1.171-.335-1.68.491-.611 1.14-.67 1.762-.135a88.75 88.75 0 012.572 2.254c.288.264.513.375.875.15 1.088-.677 1.724-1.772 2.544-2.699.214-.244-.084-.376-.236-.47a5.641 5.641 0 01-.98-.882c-.48-.474-.508-1.001-.087-1.523.45-.558 1.074-.632 1.644-.17a74.827 74.827 0 012.36 2.023c1.25 1.104 1.277 1.315 2.782-.057.615-.562 1.124-1.187 1.323-2.051.15-.644-.164-1.171-.233-1.741 1.16.845 2.467 1.561 2.886 3.084.085.327.079.67-.018.995-.646 2.393-3.132 3.544-5.34 2.445-.319-.158-.497-.146-.724.12-.572.673-1.175 1.319-1.762 1.986-1.196 1.386-2.707 1.702-4.318.841-.354-.195-.554-.146-.783.137-.57.673-1.162 1.327-1.736 1.998-1.16 1.355-2.772 1.66-4.322.76-.356-.196-.538-.133-.771.148-.544.66-1.116 1.298-1.67 1.952-1.059 1.231-2.345 1.614-3.803 1.112z" fill="#E49E6A"/><path d="M.447 28.965c.587.529 1.345.466 2.052.556 2.756.348 5.512.716 8.274 1.007 1.683.178 3.088-.425 4.11-1.809a1.11 1.11 0 01.243-.195c-.1.925-.2 1.85-.302 2.775-.931 2.695-2.533 3.656-5.48 3.297-2.673-.324-5.348-.644-8.026-.959-.943-.111-1.387-.552-1.31-1.467.108-1.066.294-2.134.44-3.205z" fill="#CB3A60"/><path d="M64.407 25.24l.47 3.278c.035.52.072 1.036.11 1.561-.98 0-1.983.065-2.966-.01-.92-.068-1.677.159-2.318.81-.888-.314-1.407-1.116-2.153-1.633-.405-.32-.79-.666-1.152-1.034 1.546-1.46 3.149-2.76 5.48-2.672.846.025 1.69-.195 2.53-.3z" fill="#D27D42"/><path d="M30.628 36.616a.605.605 0 01-.446.378c.137-.3.057-.614.286-.85.015.17-.026.358.16.472z" fill="#F6B784"/><path d="M35.79 39.574l-.38.447a.584.584 0 01.208-.617l.172.17z" fill="#F6B47F"/><path d="M72.5 29.484a2.132 2.132 0 01-2.072-1.339 2.113 2.113 0 01-.147-.857c0-1.327.924-2.244 2.26-2.23 1.287.013 2.186.937 2.18 2.234-.006 1.298-.926 2.192-2.222 2.192zM7.345 25.05a2.233 2.233 0 012.08 1.339 2.216 2.216 0 01-1.16 2.92 2.235 2.235 0 01-2.435-.443 2.221 2.221 0 01-.521-2.412 2.221 2.221 0 012.036-1.404z" fill="#EAEDF1"/></svg>