<svg width="34" height="34" fill="none" xmlns="http://www.w3.org/2000/svg"><path d="M24.708 21.833h-1.514l-.537-.517a12.459 12.459 0 002.837-10.235c-.9-5.329-5.347-9.584-10.714-10.235C6.672-.151-.15 6.672.846 14.78c.651 5.367 4.906 9.813 10.235 10.714 3.89.652 7.552-.537 10.235-2.837l.517.537v1.514l8.146 8.146c.786.786 2.07.786 2.856 0a2.024 2.024 0 000-2.856l-8.127-8.165zm-11.5 0a8.613 8.613 0 01-8.625-8.625 8.613 8.613 0 018.625-8.625 8.613 8.613 0 018.625 8.625 8.613 8.613 0 01-8.625 8.625z" fill="#fff"/></svg>