<svg width="60" height="58" fill="none" xmlns="http://www.w3.org/2000/svg"><path d="M0 51.766c.561-.864 1.385-1.037 2.337-.96.581.047 1.169 0 1.755 0a.964.964 0 01.663-.178c1.385 0 2.768-.022 4.151.011 3.786-.033 7.572-.013 11.356-.011a1.25 1.25 0 01.516.089c.256.15.253.43.313.67.445 1.798 1.563 2.694 3.41 2.694h11.065c1.743 0 2.909-.94 3.332-2.648.06-.243.06-.517.287-.693.43-.185.881-.104 1.323-.107.874 0 1.748-.023 2.622.008 2.635-.023 5.269-.029 7.903 0 .364 0 .736-.064 1.084.106a.451.451 0 01.175.36c.14 2.384-.422 4.467-2.5 5.89-.47.316-.956.57-1.384.605a1.34 1.34 0 01.47-.073c1.93-.013 3.861-.013 5.794 0 .2 0 .445-.035.539.24-.14.212-.366.205-.577.221-.211.016-.43.008-.644.008H6.073c-1.066 0-2.114-.11-3.075-.61-1.554-.805-2.667-1.974-2.93-3.803A.543.543 0 000 53.426v-1.66z" fill="#9AC3F8"/><path d="M60 53.426c-.19.118-.188.327-.24.51-.59 2.035-2.544 3.653-4.546 3.77h-7.136c.812-.354 1.603-.722 2.258-1.323 1.223-1.125 1.736-2.57 1.808-4.202.02-.453 0-.908 0-1.361.07-.037-.031-.024.044-.038a8.591 8.591 0 013.715.022c.716 0 1.435.046 2.146 0 .947-.06 1.604.288 1.945 1.198L60 53.426z" fill="#7FB1F8"/><path d="M8.947 50.8l-4.855.007c0-5.192.004-10.385.011-15.577v-13.8c0-1.842 1.002-2.864 2.806-2.864h8.723c.222 0 .47.09.665-.117a.144.144 0 01.184.05c.186.317.35.663.635.918a.827.827 0 01.265.634c.011.987.013 1.976 0 2.963a.576.576 0 01-.18.475c-.271.159-.57.12-.86.12h-5.273c-1.27 0-1.82.514-1.95 1.784a8.442 8.442 0 00-.024.889c-.014 5.809.025 11.618-.02 17.43-.025.316.004.634.086.94.062 1.02-.122 2.032-.074 3.052.038.783.011 1.57 0 2.355.002.257.025.518-.139.74z" fill="#C8DFFC"/><path d="M55.91 50.804l-3.752.016-1.083-.015a.908.908 0 01-.156-.611c-.025-1.839.044-3.678-.066-5.517.074-.306.102-.623.083-.938-.045-5.917 0-11.834-.02-17.748a4.46 4.46 0 00-.085-1.058c-.194-.807-.705-1.242-1.525-1.307-.425-.034-.86.055-1.276-.102-.26-.158-.247-.425-.253-.677a28.845 28.845 0 010-1.584c.025-1.05-.431-1.802-1.329-2.306-.156-.088-.387-.117-.383-.38h7.203c1.596 0 2.634 1.079 2.635 2.74v16.23a5635.2 5635.2 0 00.007 13.257z" fill="#BBD5F8"/><path d="M17.319 12.052C17.659 5.589 22.877.474 28.925.054c2.372.317 4.175 1.566 5.538 3.5 1.19 1.685 1.66 3.591 1.549 5.651a.785.785 0 01-.113.452c-.28.105-.312-.158-.416-.298a7.935 7.935 0 01-.714-1.483c-.247-.615-.544-.672-.883-.128-1.95 3.128-4.917 4.45-8.389 4.898-.388.033-.778.046-1.168.04h-5.54a2.452 2.452 0 00-.753.055c-.237.04-.469.136-.714.016a1.587 1.587 0 01-.003-.705z" fill="#756E78"/><path d="M35.865 9.662c.04-1.526-.052-3.02-.674-4.455-1.094-2.511-2.932-4.12-5.507-4.896-.255-.078-.54-.067-.76-.257a8.558 8.558 0 011.922 0c4.209.279 7.44 2.276 9.784 5.755 1.268 1.88 1.918 3.992 2.062 6.263.04.781.04.781-.67.681-.938-.158-1.892-.022-2.834-.074-1.165-.317-1.971-1.152-2.773-1.986a3.01 3.01 0 01-.6-.87.16.16 0 01.05-.161z" fill="#665E66"/><path d="M17.34 12.747l.571-.119c.89-.106 1.782-.017 2.671-.047.452-.015.425.325.429.611.015 1.376 0 2.751.01 4.12 0 .476-.056.951.063 1.41.02.394.238.791 0 1.188-.44.236-.918.117-1.377.133a20.16 20.16 0 01-1.637 0c-.403-.026-.564.123-.556.535.014.793.008 1.585 0 2.365 0 .274.03.556-.133.803-.239.022-.256-.01-.178-.317 0-1.117 0-2.233.016-3.35a.696.696 0 00-.313-.634c-.313-.233-.55-.553-.508-.993-.127-1.013-.019-2.029-.056-3.041-.016-.449.044-.9-.038-1.346.157-.507.343-.995.897-1.2.058-.03.08-.099.14-.118zm24.744-.119c.556.211.647-.103.61-.556a1.602 1.602 0 00.589 1.176c.222.221.364.511.405.824-.086 1.426-.014 2.841-.038 4.262.046.783-.551 1.5-1.392 1.67a3.794 3.794 0 01-.521.039c-.732.024-1.463.01-2.188.008a1.09 1.09 0 01-.614-.122c-.276-.431-.032-.87-.022-1.306.117-.406.064-.82.065-1.233.008-1.379 0-2.756.008-4.134 0-.647.042-.683.66-.672.81.016 1.625-.062 2.438.044z" fill="#9AC3F8"/><path d="M46.056 18.569c1.04.456 1.818 1.131 1.875 2.377.025.569 0 1.14 0 1.711v.767l-.08.08c-.196.09-.412.128-.626.109h-3.439a1.12 1.12 0 01-.625-.122c-.156-.138-.072-.297-.016-.433.385-.95.4-1.943.382-2.944-.01-.525-.044-1.057.18-1.555l2.349.01z" fill="#C8DFFC"/><path d="M43.718 18.558c-.07 1.207.114 2.423-.12 3.625a3.546 3.546 0 01-.47 1.25c.024.511-.37.768-.65 1.094a4.733 4.733 0 01-3.089 1.09h-2.87c-.251 0-.509.026-.743-.109a.184.184 0 01-.077-.206 3.61 3.61 0 00.197-1.62.239.239 0 01.11-.197c.468-.197.96-.09 1.444-.105.758 0 1.517.014 2.277 0 1.164-.035 1.9-.816 1.938-1.994.016-.5-.14-1.026.157-1.497.948-.038 1.61-.574 1.76-1.426.03-.053.062-.056.098 0a.216.216 0 01.038.095z" fill="#B8CDD2"/><path d="M43.695 18.444h-.1v-3.817c0-.189-.062-.395.093-.561l.007 4.378z" fill="#94BDEA"/><path d="M16.31 14.072c.194.287.087.61.09.914.015 1.157 0 2.314 0 3.472l-.108-.014.019-4.372z" fill="#93BEEB"/><path d="M17.342 12.747l-.14.125c.075-.268-.048-.564.111-.82l.029.695z" fill="#8EB3D4"/><path d="M8.947 50.8c-.03-2.053-.049-4.107.053-6.157-.097-1.376.286-2.66.805-3.895 1.862-4.437 5.12-7.247 9.741-8.432 1.077-.278 2.154-.555 3.234-.813a2.981 2.981 0 001.643-.95c.119-.139.24-.403.5-.16.056.191.056.393 0 .584-.313 1.762-.614 3.526-.781 5.31-.223 2.789-.393 5.575-.199 8.378.127 1.85.295 3.692.533 5.529.03.233.08.475-.094.678-.297.192-.625.14-.955.143-.655 0-1.308.01-1.963 0a.868.868 0 01-.597-.17l-10.223-.02a203.16 203.16 0 00-1.697-.026z" fill="#DF7F83"/><path d="M51.003 44.643c.149 2.06.063 4.109.064 6.162l-7.935-.012c-.23-.243-.186-.552-.18-.842.045-1.917-.019-3.823-.611-5.671a.683.683 0 01.032-.574c.302-.257.668-.158 1.01-.174.449-.017.897.014 1.346-.013.605-.038.878-.282.986-.889.078-.488.086-.985.025-1.475-.07-.643-.398-.95-1.047-.95-1.407 0-2.814-.047-4.21.032-.268-.015-.387-.234-.53-.415-1.093-1.377-2.438-2.443-3.934-3.328a.682.682 0 01-.176-.337 73.539 73.539 0 00-.75-5.009c-.047-.249-.122-.5-.027-.753.238-.264.386-.025.508.12.453.535 1.043.806 1.7.967 1.345.332 2.694.647 4.018 1.043a13.8 13.8 0 016.161 3.836 14.081 14.081 0 013.41 6.464c.144.594.191 1.208.14 1.818z" fill="#DA636E"/><path d="M36.098 36.468c.76.198 1.308.747 1.893 1.213.892.712 1.77 1.454 2.327 2.493-.228.762-.205 1.547-.184 2.33.02.7.312.976 1.006 1.033.432.036.897-.146 1.288.185.049.692.332 1.33.469 2.003.283 1.426.231 2.86.235 4.297v.77l-3.996.042a.585.585 0 01-.373.15c-.954.03-1.907.051-2.86-.01a.57.57 0 01-.271-.105c-.238-.284-.117-.604-.077-.907.43-3.04.628-6.11.59-9.181-.02-1.082-.118-2.16-.194-3.24-.027-.365-.128-.747.147-1.073z" fill="#DF7F83"/><path d="M35.629 50.796l3.514.038c-.033 1.961-1.489 3.422-3.427 3.424H24.295c-1.94 0-3.394-1.461-3.425-3.424l3.514-.038c.231-.192.511-.17.782-.17h9.69c.255 0 .535-.022.773.17z" fill="#609FF6"/><path d="M24.844 30.31c-.676.982-1.706 1.28-2.784 1.546-1.645.406-3.333.69-4.882 1.417-4.462 2.092-7.163 5.58-8.042 10.493-.051.29-.089.584-.134.877-.156-.17-.09-.377-.09-.568V25.648c0-.864.182-1.648 1.067-2.06.229-.108.479-.162.731-.159 2.167.006 4.334.01 6.501.008.031.114.064.228.097.342.238.148.202.412.256.634.512 2.08 1.778 3.463 3.767 4.172.974.348 1.96.66 2.939.999.236.082.497.128.64.378a.322.322 0 01-.066.348z" fill="#E9F1FE"/><path d="M51.003 44.643c-.279-2.9-1.396-5.442-3.198-7.694a3.905 3.905 0 01-.068-.763V24.459c0-.348-.067-.718.188-1.023.39 0 .782.019 1.17 0 1.3-.056 1.981.806 1.984 1.954.017 6.29 0 12.581 0 18.871a.508.508 0 01-.076.382z" fill="#DAE7F8"/><path d="M24.844 30.31v-.348c.11-1.06.054-2.123.084-3.183a1.26 1.26 0 00-.528-1.11c-1.604-1.285-2.776-2.902-3.308-4.94-.073-.277-.214-.564-.02-.853l-.108-1.082c-.097-1.743-.022-3.474-.04-5.21-.011-1.003 0-.997.973-1.005.858 0 1.72.035 2.575-.024 2.483-.12 4.812-.732 6.863-2.218a9.067 9.067 0 002.402-2.64c.157-.246.258-.553.634-.526.415.028.445.39.553.671.248.645.514 1.278.938 1.826v.105c.123.311.18.645.169.98 0 2.625.023 5.247-.011 7.87a8.128 8.128 0 01-1.109 4.058c-.193.21-.454.197-.705.2-.583.01-1.166-.008-1.749.008-.83.022-1.356.353-1.577.977-.23.656-.048 1.168.626 1.744.113.076.206.18.271.3 0 .06 0 .129-.04.159a5.758 5.758 0 01-2.757 1.21 9.311 9.311 0 005.342-1.123c.203-.114.427-.331.674-.054.19.732.064 1.48.089 2.219.019.529-.013 1.058.156 1.57a.433.433 0 01-.094.409c.218 1.395.45 2.786.646 4.183.081.582.217 1.16.172 1.756-.13.306-.419.406-.686.515-3.595 1.464-7.178 1.468-10.746-.09-.213-.092-.443-.176-.529-.431.078-1.846.47-3.645.768-5.46.036-.153.05-.308.072-.463z" fill="#FEDCCD"/><path d="M24.47 12.555c-.961.168-1.932.068-2.896.062-.499 0-.613.158-.609.634.022 1.848 0 3.694 0 5.546-.174-.184-.098-.412-.1-.62 0-1.655-.017-3.311 0-4.966 0-.436-.109-.59-.556-.575-.797.03-1.596 0-2.395 0a1.21 1.21 0 01.327-.093c2.077-.003 4.153.002 6.229.012z" fill="#8CB0D2"/><path d="M34.803 22.711c.44-1.07.876-2.139.994-3.308.024-.233.058-.468.06-.702.007-2.978.012-5.956.015-8.935a8.771 8.771 0 003.15 2.796c.128.402.056.817.053 1.225-.014 1.63.06 3.26-.037 4.89l-.11 1.196a.32.32 0 01.085.214c-.22 1.287-.626 2.494-1.545 3.461l-1.496.008a4.981 4.981 0 01-1.169-.845z" fill="#FECABD"/><path d="M39.038 18.68c0-2.039-.006-4.077-.016-6.115 1.02 0 2.044-.124 3.062.066-.819 0-1.637.029-2.454.008-.388-.01-.5.129-.497.512a285.25 285.25 0 010 4.913c.003.2.08.429-.095.616z" fill="#8BADCF"/><path d="M21.07 19.876c.425 2.395 1.629 4.307 3.54 5.759.349.265.502.521.482.967-.04.803-.01 1.611-.014 2.418 0 .33 0 .667-.233.943-1.176-.408-2.357-.793-3.528-1.222-2.318-.837-3.675-2.482-4.01-4.965 0-1.179.012-2.358 0-3.538 0-.317.016-.438.437-.408 1.108.08 2.22.038 3.326.046z" fill="#756E78"/><path d="M37.468 23.548c.672-1.15 1.265-2.33 1.46-3.675h2.908c0 .533.03 1.065.017 1.598a2.088 2.088 0 01-.594 1.47 2.03 2.03 0 01-1.45.606c-.78.02-1.56.004-2.34.001z" fill="#665E66"/><path d="M35.16 30.3v-.333c.078-.28.336-.302.548-.377a163.34 163.34 0 012.814-.95c1.892-.619 3.157-1.878 3.795-3.78a1.17 1.17 0 01.217-.475c.2-.317.4-.634.602-.951h4.794v12.85c0 .225.09.475-.12.668a14.205 14.205 0 00-5.593-3.961c-1.332-.51-2.73-.77-4.102-1.122-1.13-.285-2.23-.55-2.955-1.569z" fill="#E9F1FE"/><path d="M42.534 24.385c-.208 1.576-1.103 2.693-2.324 3.605-.883.652-1.954.873-2.957 1.242-.696.257-1.398.493-2.096.737-.241-.27-.233-.606-.236-.935-.01-.998-.013-1.997-.018-2.993a.18.18 0 010-.159c.264-.204.504-.455.87-.461 1.323 0 2.657.02 3.973 0a4.05 4.05 0 002.393-.824c.117-.095.21-.238.395-.212z" fill="#665E66"/><path d="M35.768 25.415a2.508 2.508 0 01-.832.508c-1.06.263-2.12.327-3.18 0-1.36-.602-1.407-2.06-.595-2.78.33-.285.752-.436 1.185-.422l2.457-.008c.471.143.883.44 1.17.845a2.026 2.026 0 01-.205 1.857z" fill="#D57A7A"/><path d="M24.013 36.233c3.986 1.924 7.972 1.938 11.961 0l.122.228c.11 2.278.325 4.553.22 6.835-.11 2.41-.255 4.819-.677 7.199a2.323 2.323 0 00-.017.295H24.375a60.173 60.173 0 01-.676-6.738 42.046 42.046 0 01.186-6.668c.047-.38-.076-.783.128-1.15z" fill="#FEDF7D"/><path d="M42.426 43.717c-.469 0-.938 0-1.394-.017-.683-.018-1.06-.404-1.074-1.11-.008-.45.017-.901-.008-1.35a1.444 1.444 0 01.366-1.075c.25-.11.52-.166.792-.168 1.207.01 2.414 0 3.622 0 .77 0 1.143.366 1.172 1.145.02.476.024.951 0 1.418-.047.793-.41 1.122-1.195 1.13-.763.027-1.523.027-2.28.027z" fill="#E9F1FE"/><path d="M31.755 25.922h3.181l-.033.115c-.997.536-2.003 1.048-3.133 1.236-1.018.17-2.032.328-3.116.02 1.107-.373 2.203-.653 3.101-1.371z" fill="#FECABD"/></svg>