<svg width="32" height="32" fill="none" xmlns="http://www.w3.org/2000/svg"><path d="M16 .164C7.26.164.165 7.257.165 15.997s7.093 15.834 15.833 15.834 15.834-7.094 15.834-15.834c0-8.74-7.094-15.833-15.834-15.833zm7.346 10.767c-.238 2.501-1.267 8.581-1.79 11.384-.22 1.187-.664 1.583-1.076 1.63-.918.08-1.615-.6-2.502-1.187-1.393-.918-2.185-1.488-3.53-2.375-1.568-1.029-.555-1.599.348-2.517.238-.238 4.29-3.927 4.37-4.26a.318.318 0 00-.08-.284c-.094-.08-.22-.048-.332-.032-.142.032-2.359 1.504-6.681 4.417-.634.428-1.204.65-1.71.634-.57-.016-1.647-.317-2.454-.586-.998-.317-1.774-.49-1.71-1.045.031-.285.427-.57 1.171-.87 4.623-2.012 7.695-3.342 9.231-3.975 4.402-1.837 5.304-2.153 5.906-2.153.127 0 .427.031.617.19.159.126.206.3.222.427-.016.095.016.38 0 .602z" fill="#F06F59"/></svg>