<svg width="70" height="70" fill="none" xmlns="http://www.w3.org/2000/svg"><path d="M22.996 67.831c-2.536-.852-4.86-2.138-7.14-3.51a.236.236 0 01-.17-.228c.114-1.053-.64-1.772-1.016-2.642a.866.866 0 00-.913-.545.858.858 0 00-.777.61c-.069.17-.077.422-.368.394a37.126 37.126 0 01-6.758-7.535A35.093 35.093 0 011.61 24.464c.065-.217.155-.427.234-.64.51-.185.872.154 1.25.382 1.192.723 2.247 1.646 3.434 2.378 1.903 1.175 3.741.813 5.059-.994a7.06 7.06 0 001.108-2.4c.234-.88.461-1.765.626-2.661.596-3.232 2.675-5.182 5.522-6.49.553-.255 1.122-.47 1.677-.718 2.32-1.043 2.973-2.313 2.643-4.836-.252-1.996-.193-3.992.387-5.943.077-.259.085-.564.38-.71A27.923 27.923 0 0130.107.344a34.911 34.911 0 0116.89 1.783c3.66 1.323 6.953 3.266 10.009 5.647.101.262-.098.378-.263.471-1.864 1.053-3.66 2.224-5.505 3.301a1.468 1.468 0 01-.421.16 1.678 1.678 0 01-.958-.16c-2.936-1.105-5.873-2.205-8.797-3.346-.56-.219-.976-.189-1.438.244-.55.519-1.102 1.047-1.701 1.509-.43.331-.387.546-.013.88 1.493 1.325 3.008 2.628 4.508 3.947.407.366.882.683 1.124 1.21-.065.355-.39.451-.638.61-4.329 2.587-8.633 5.211-12.95 7.817-.534.323-1 .386-1.55.067a12.36 12.36 0 00-1.77-.88c-1.286-.49-2.526-.427-3.659.441-.303.23-.406.407-.06.701 1.693 1.484 3.334 3.031 5.082 4.458 1.137.931 2.425 1.004 3.708.364 4.378-2.179 8.771-4.328 13.116-6.574.496-.256 1.017-.455 1.5-.738.204-.117.407-.203.639-.032.374.478.433 1.071.587 1.626.578 2.07 1.151 4.142 1.72 6.214.242.872.332.907 1.151.557.653-.276 1.3-.565 1.954-.831.456-.183.622-.498.665-.99.232-2.767.423-5.537.722-8.3.07-.673-.035-1.372.274-2.012.153-.256.421-.352.667-.476 2.46-1.23 4.914-2.465 7.38-3.683.322-.159.645-.453 1.047-.165 2.17 3.064 3.947 6.332 5.1 9.918a31.347 31.347 0 011.486 6.935c-.596.454-1.32.265-1.975.34A29.767 29.767 0 0057.54 34.45c-1.09.541-2.221.995-3.383 1.358-2.285.736-4.497.421-6.683-.42-1.423-.545-2.805-1.175-4.318-1.442a9.28 9.28 0 00-2.724-.054c-1.802.221-2.993 1.374-3.44 3.284a9.48 9.48 0 00-.277 2.183c0 .887-.022 1.773 0 2.66.096 3.115-.146 6.225-.179 9.35a12.01 12.01 0 01-.701 3.862c-.61 1.703-1.688 2.906-3.457 3.455a25.66 25.66 0 00-4.27 1.81 10.95 10.95 0 00-3.335 2.599 6.128 6.128 0 00-1.45 3.527c-.035.41-.039.847-.327 1.21z" fill="#3EA6FA"/><path d="M22.996 67.831c-.05-3.978 2.313-6.24 5.593-7.842 1.016-.498 2.05-1.026 3.153-1.299 2.694-.664 3.849-2.563 4.312-5.098.407-2.284.324-4.593.387-6.895.07-2.506.048-5.014.085-7.52 0-.914.146-1.82.433-2.688.61-1.742 1.883-2.642 3.66-2.87 1.596-.203 3.125.122 4.613.675.758.28 1.523.55 2.269.866 2.745 1.16 5.453 1.057 8.177-.112 1.93-.827 3.77-1.852 5.77-2.518a28.556 28.556 0 018.255-1.523c.302 1.979.374 3.985.215 5.98-.407 6.346-2.293 12.22-5.896 17.481-5.711 8.334-13.577 13.386-23.56 15.063-5.835.98-11.55.406-17.133-1.537-.108-.047-.218-.11-.333-.163z" fill="#94D60B"/><path d="M63.123 14.152c-.335-.101-.58.116-.843.248a3790.82 3790.82 0 00-8.12 4.043.672.672 0 01-.184-.699c.157-.774.084-1.563.19-2.338.022-.166.131-.372-.052-.492-.182-.12-.33.043-.48.129a757.95 757.95 0 01-4.889 2.746c-.596.333-1.17.71-1.781 1.004-.567.272-.703.656-.5 1.23.166.478.302.966.406 1.461.051.24.171.488-.018.724L34.23 28.534l-2.237 1.126c-1.535.772-2.997.672-4.31-.464-1.818-1.57-3.603-3.177-5.404-4.769 1.313-1.388 2.907-1.713 4.572-.949.261.099.511.223.746.372 1.105.813 2.048.61 3.19-.114 4.067-2.565 8.218-5.002 12.335-7.49.128-.077.244-.175.366-.262.098-.295.366-.407.6-.551 1.932-1.159 3.863-2.325 5.792-3.482a2.54 2.54 0 01.917-.334l5.897-3.547c.128-.077.274-.132.32-.296.913-.147 1.776-.504 2.737-.494a6.828 6.828 0 013.068.675c.539.272 1.029.256 1.596.183.79-.104 1.61-.25 2.37.164.761.415 1.198.996 1.209 1.868.01.872-.43 1.498-1.167 1.893-1.017.548-2.078 1.042-3.111 1.573-.236.12-.551.157-.592.516z" fill="#ECECF8"/><path d="M23.935 1.832c-.697 2.313-.803 4.66-.557 7.06.256 2.53-.448 3.59-2.78 4.618-.693.305-1.39.61-2.08.919-2.874 1.331-4.608 3.526-5.141 6.677-.244 1.445-.549 2.886-1.332 4.167-.7 1.149-1.596 2.033-3.021 2.17-.868.088-1.649-.17-2.395-.572-.827-.447-1.553-1.047-2.312-1.596-.758-.549-1.545-1.148-2.474-1.457a32.64 32.64 0 015.613-10.434 34.654 34.654 0 0116.11-11.469c.122-.035.245-.063.369-.083z" fill="#94D60B"/><path d="M12.614 61.924c.023-.01.06-.018.066-.034.18-.574.31-1.183 1.098-1.22.786-.037 1.016.58 1.307 1.147.394.795.998 1.52.77 2.506-.187.068-.38.127-.563.204-.573.244-.998.102-1.36-.407-.494-.707-.7-1.573-1.318-2.196z" fill="#ECECF8"/><path d="M46.846 22.207c-.203-.813-.37-1.626-.646-2.406-.19-.535-.017-.803.406-1.04a1732.83 1732.83 0 004.957-2.788c.726-.406 1.445-.829 2.177-1.232.19-.103.407-.333.61-.178.204.154.086.422.067.648-.09 1.077-.178 2.155-.266 3.232l-.775 8.667c-.06.706-.132 1.409-.158 2.114-.014.38-.232.52-.529.645-.909.38-1.83.754-2.716 1.162-.45.204-.634.159-.775-.372-.711-2.68-1.47-5.35-2.216-8.02a3.416 3.416 0 00-.136-.431zm3.94-10.59l-7.309 4.367c-1.97-1.738-3.928-3.49-5.92-5.2-.39-.333-.366-.48 0-.777A32.5 32.5 0 0039.66 8.16a.982.982 0 011.206-.24c3.035 1.177 6.08 2.325 9.127 3.476.252.09.526.148.792.221z" fill="#DCDCE2"/><path d="M15.638 41.207a1.045 1.045 0 01-.93-1.435 23.626 23.626 0 012.428-4.181.922.922 0 011.342-.254c.51.33.726.835.407 1.37a107.513 107.513 0 00-2.326 3.986 1.017 1.017 0 01-.921.514zm-1.788 1.998c.732 0 1.275.61 1.08 1.277-.425 1.453-.85 2.904-1.22 4.376-.144.592-.634.852-1.24.712a.942.942 0 01-.779-1.13 21.8 21.8 0 011.293-4.66.944.944 0 01.867-.575zm-.294 13.918c.03.813-.328 1.354-.913 1.38-.649.029-1.043-.331-1.157-.967a21.234 21.234 0 01-.348-4.452c.02-.693.505-1.163 1.076-1.157.61 0 1.043.49 1.037 1.236a27.28 27.28 0 00.305 3.96z" fill="#ECECF8"/><path d="M66.01 25.684c.053.872-.335 1.22-.852 1.327a.933.933 0 01-1.13-.655c-.384-1.15-.785-2.293-1.269-3.406-.248-.574 0-1.037.527-1.346a.897.897 0 011.313.362 16.88 16.88 0 011.411 3.718z" fill="#0F89CB"/><path d="M23.268 31.35c-.026.154-.08.3-.159.434a10.812 10.812 0 01-1.886 1.858c-.43.317-.938.222-1.314-.17-.376-.393-.425-.91-.073-1.316a18.995 18.995 0 011.724-1.708c.328-.293.753-.282 1.147-.09.394.194.537.517.561.993z" fill="#EBECF8"/></svg>