<svg width="38" height="28" fill="none" xmlns="http://www.w3.org/2000/svg"><path fill-rule="evenodd" clip-rule="evenodd" d="M15.076 18.628V7.952l10.267 5.356-10.267 5.32zM37.62 6.101s-.372-2.619-1.51-3.772C34.663.816 33.043.81 32.301.721 26.985.336 19.008.336 19.008.336h-.016s-7.977 0-13.294.385c-.744.087-2.362.095-3.81 1.608C.752 3.482.38 6.101.38 6.101S0 9.177 0 12.25v2.884c0 3.075.38 6.15.38 6.15s.37 2.617 1.509 3.771c1.447 1.514 3.345 1.467 4.191 1.625 3.04.291 12.92.382 12.92.382s7.985-.011 13.302-.396c.744-.089 2.362-.097 3.807-1.61 1.14-1.155 1.511-3.772 1.511-3.772s.38-3.075.38-6.151v-2.882c0-3.075-.38-6.151-.38-6.151z" fill="#F06F59"/></svg>